ISO-10303-21;
HEADER;
FILE_DESCRIPTION (( 'STEP AP214' ),
    '1' );
FILE_NAME ('SMTSO-M2-5ET.STEP',
    '2025-10-20T17:13:32',
    ( '' ),
    ( '' ),
    'SwSTEP 2.0',
    'SolidWorks 2024',
    '' );
FILE_SCHEMA (( 'AUTOMOTIVE_DESIGN' ));
ENDSEC;

DATA;
#1 = CARTESIAN_POINT ( 'NONE',  ( 2.103749999999999787, 0.000000000000000000, 1.288175351853119965E-16 ) ) ;
#2 = CARTESIAN_POINT ( 'NONE',  ( 1.564545411101916361, -6.809036203259282560E-16, 2.779999999999999805 ) ) ;
#3 = DIRECTION ( 'NONE',  ( 1.000000000000000000, -0.000000000000000000, 4.336808690044567189E-16 ) ) ;
#4 = CARTESIAN_POINT ( 'NONE',  ( 1.530000000000000027, 2.373414277047621646, 1.286642144892718109 ) ) ;
#5 = ORIENTED_EDGE ( 'NONE', *, *, #965, .F. ) ;
#6 = EDGE_CURVE ( 'NONE', #604, #779, #861, .T. ) ;
#7 = CARTESIAN_POINT ( 'NONE',  ( 1.530000000000000693, 3.302382558580752520E-16, -2.696600000000000108 ) ) ;
#8 = DIRECTION ( 'NONE',  ( 0.000000000000000000, 0.000000000000000000, 1.000000000000000000 ) ) ;
#9 = CARTESIAN_POINT ( 'NONE',  ( 5.684333754564507846E-11, 0.000000000000000000, -1.084202172451265868E-17 ) ) ;
#10 = ORIENTED_EDGE ( 'NONE', *, *, #685, .F. ) ;
#11 = EDGE_CURVE ( 'NONE', #812, #862, #467, .T. ) ;
#12 = AXIS2_PLACEMENT_3D ( 'NONE', #94, #681, #432 ) ;
#13 = LINE ( 'NONE', #99, #849 ) ;
#14 = PRESENTATION_STYLE_ASSIGNMENT (( #264 ) ) ;
#15 = AXIS2_PLACEMENT_3D ( 'NONE', #448, #303, #702 ) ;
#16 = VECTOR ( 'NONE', #295, 1000.000000000000114 ) ;
#17 = CARTESIAN_POINT ( 'NONE',  ( 2.065500000000000114, -2.161899308423479660, -1.661427057452182776 ) ) ;
#18 = EDGE_LOOP ( 'NONE', ( #250, #1055, #368, #377 ) ) ;
#19 = CARTESIAN_POINT ( 'NONE',  ( 1.529999999999999805, 1.078409224164276869, -2.471726841582070566 ) ) ;
#20 = CARTESIAN_POINT ( 'NONE',  ( 2.065500000000000114, -0.7076354053653137743, -2.633135131372792426 ) ) ;
#21 = ORIENTED_EDGE ( 'NONE', *, *, #562, .T. ) ;
#22 = CARTESIAN_POINT ( 'NONE',  ( 2.402099999999999458, -0.3583243807358175714, 2.703500000000000014 ) ) ;
#23 = CARTESIAN_POINT ( 'NONE',  ( 2.142000000000000348, -0.3581563766297491402, -2.703430448640564698 ) ) ;
#24 = UNCERTAINTY_MEASURE_WITH_UNIT (LENGTH_MEASURE( 1.000000000000000082E-05 ), #1025, 'distance_accuracy_value', 'NONE');
#25 = ORIENTED_EDGE ( 'NONE', *, *, #1030, .T. ) ;
#26 = ADVANCED_FACE ( 'NONE', ( #300 ), #305, .T. ) ;
#27 = CARTESIAN_POINT ( 'NONE',  ( 2.325600000000000556, 0.7076354053653144405, -2.633135131372791538 ) ) ;
#28 = DIRECTION ( 'NONE',  ( 1.000000000000000000, 0.000000000000000000, 1.836970198661850822E-16 ) ) ;
#29 = CARTESIAN_POINT ( 'NONE',  ( 2.325600000000000112, -1.361533913432726450, -2.362281500915736743 ) ) ;
#30 = CARTESIAN_POINT ( 'NONE',  ( 2.402099999999999902, 0.000000000000000000, 2.703500000000000014 ) ) ;
#31 = AXIS2_PLACEMENT_3D ( 'NONE', #340, #219, #693 ) ;
#32 = DIRECTION ( 'NONE',  ( -1.000000000000000000, 0.000000000000000000, -6.023345402497293898E-17 ) ) ;
#33 = AXIS2_PLACEMENT_3D ( 'NONE', #310, #853, #777 ) ;
#34 = VERTEX_POINT ( 'NONE', #768 ) ;
#35 = ADVANCED_FACE ( 'NONE', ( #462 ), #943, .T. ) ;
#36 = CARTESIAN_POINT ( 'NONE',  ( 1.530000000000000249, -5.490909177796165608, 2.745454588898081916 ) ) ;
#37 = CARTESIAN_POINT ( 'NONE',  ( 2.402100000000000346, 0.3581563766297500284, -2.703569551359435774 ) ) ;
#38 = DIRECTION ( 'NONE',  ( -6.023345402697245486E-17, 0.000000000000000000, 1.000000000000000000 ) ) ;
#39 = DIRECTION ( 'NONE',  ( 0.000000000000000000, 0.000000000000000000, 1.000000000000000000 ) ) ;
#40 = CARTESIAN_POINT ( 'NONE',  ( 5.924350000000000449, 3.404518101629641773E-16, -2.779999999999999805 ) ) ;
#41 = CARTESIAN_POINT ( 'NONE',  ( 2.141999999999999904, 2.634833084753754218, -0.7037179297453740601 ) ) ;
#42 = EDGE_CURVE ( 'NONE', #538, #750, #813, .T. ) ;
#43 = DIRECTION ( 'NONE',  ( -1.694065894508600678E-16, 0.000000000000000000, 1.000000000000000000 ) ) ;
#44 = CARTESIAN_POINT ( 'NONE',  ( 2.233800000000000008, 0.000000000000000000, 1.367808009967680119E-16 ) ) ;
#45 = CARTESIAN_POINT ( 'NONE',  ( 1.839450000000000029, 0.000000000000000000, 1.126338277345800118E-16 ) ) ;
#46 = ORIENTED_EDGE ( 'NONE', *, *, #199, .F. ) ;
#47 = CARTESIAN_POINT ( 'NONE',  ( 2.402099999999999902, 1.365504621358727189, -2.360712061689465902 ) ) ;
#48 = ADVANCED_FACE ( 'NONE', ( #1014, #786 ), #373, .T. ) ;
#49 = DIRECTION ( 'NONE',  ( -1.000000000000000000, 0.000000000000000000, -6.123233995736769734E-17 ) ) ;
#50 = EDGE_LOOP ( 'NONE', ( #444, #945 ) ) ;
#51 = VERTEX_POINT ( 'NONE', #311 ) ;
#52 = AXIS2_PLACEMENT_3D ( 'NONE', #489, #726, #77 ) ;
#53 = CARTESIAN_POINT ( 'NONE',  ( 2.402099999999999458, 2.634704570599157414, 0.7036646974392171128 ) ) ;
#54 = CARTESIAN_POINT ( 'NONE',  ( 1.564545411101916805, 5.559999999999997833, -2.779999999999998472 ) ) ;
#55 = ORIENTED_EDGE ( 'NONE', *, *, #635, .F. ) ;
#56 = EDGE_CURVE ( 'NONE', #531, #500, #361, .T. ) ;
#57 = VERTEX_POINT ( 'NONE', #548 ) ;
#58 = DIRECTION ( 'NONE',  ( -1.000000000000000000, 0.000000000000000000, -6.123233995736769734E-17 ) ) ;
#59 = CYLINDRICAL_SURFACE ( 'NONE', #781, 1.800000000000000266 ) ;
#60 = DIRECTION ( 'NONE',  ( 8.673617379596101242E-16, 0.000000000000000000, -1.000000000000000000 ) ) ;
#61 = ORIENTED_EDGE ( 'NONE', *, *, #235, .T. ) ;
#62 = DIRECTION ( 'NONE',  ( 0.7071067811865470176, 8.659560562354935323E-17, 0.7071067811865480168 ) ) ;
#63 = DIRECTION ( 'NONE',  ( 0.000000000000000000, 0.000000000000000000, 1.000000000000000000 ) ) ;
#64 = B_SPLINE_CURVE_WITH_KNOTS ( 'NONE', 3,
 ( #518, #445, #27, #119, #359, #290, #605, #930, #208, #769, #850, #939, #128, #534, #997, #279, #510, #856 ),
 .UNSPECIFIED., .F., .F.,
 ( 4, 2, 2, 2, 2, 2, 2, 2, 4 ),
 ( 0.5000000000000000000, 0.5625000000000000000, 0.6249999999999998890, 0.6875000000000000000, 0.7500000000000000000, 0.8125000000000000000, 0.8750000000000000000, 0.9375000000000000000, 1.000000000000000000 ),
 .UNSPECIFIED. ) ;
#65 = CARTESIAN_POINT ( 'NONE',  ( 1.530000000000000027, 2.471726841582071010, 1.078409224164277980 ) ) ;
#66 = VERTEX_POINT ( 'NONE', #149 ) ;
#67 = AXIS2_PLACEMENT_3D ( 'NONE', #839, #91, #8 ) ;
#68 = VECTOR ( 'NONE', #363, 1000.000000000000000 ) ;
#69 = CARTESIAN_POINT ( 'NONE',  ( 1.529999999999999805, -2.443781372801617557, -1.141906680319867418 ) ) ;
#70 = CARTESIAN_POINT ( 'NONE',  ( 1.529999999999999361, 2.443781372801649976, 1.141906680319863421 ) ) ;
#71 = EDGE_LOOP ( 'NONE', ( #226, #948 ) ) ;
#72 = EDGE_CURVE ( 'NONE', #51, #872, #144, .T. ) ;
#73 = DIRECTION ( 'NONE',  ( -1.000000000000000000, 0.000000000000000000, -6.123233995736769734E-17 ) ) ;
#74 = CARTESIAN_POINT ( 'NONE',  ( 1.530000000000000027, 2.696532625059573363, 0.3425573413964798086 ) ) ;
#75 = ORIENTED_EDGE ( 'NONE', *, *, #824, .T. ) ;
#76 = EDGE_CURVE ( 'NONE', #862, #707, #575, .T. ) ;
#77 = DIRECTION ( 'NONE',  ( 0.000000000000000000, 0.000000000000000000, 1.000000000000000000 ) ) ;
#78 = CARTESIAN_POINT ( 'NONE',  ( 6.446599999961107663, 0.000000000000000000, 2.168404344971008128E-16 ) ) ;
#79 = EDGE_CURVE ( 'NONE', #627, #439, #380, .T. ) ;
#80 = EDGE_LOOP ( 'NONE', ( #126, #1045, #271, #1010 ) ) ;
#81 = AXIS2_PLACEMENT_3D ( 'NONE', #595, #200, #421 ) ;
#82 = CYLINDRICAL_SURFACE ( 'NONE', #414, 2.703500000000000014 ) ;
#83 = VECTOR ( 'NONE', #62, 1000.000000000000000 ) ;
#84 = DIRECTION ( 'NONE',  ( -1.000000000000000000, 0.000000000000000000, -6.123233995736769734E-17 ) ) ;
#85 = CARTESIAN_POINT ( 'NONE',  ( 1.529999999999999805, -1.562412008210878112, 2.212036077807536749 ) ) ;
#86 = VECTOR ( 'NONE', #542, 1000.000000000000000 ) ;
#87 = CARTESIAN_POINT ( 'NONE',  ( 1.530000000000000027, 0.1713638111420250632, 2.696600000000000552 ) ) ;
#88 = EDGE_LOOP ( 'NONE', ( #696, #741, #622, #991 ) ) ;
#89 = EDGE_CURVE ( 'NONE', #803, #323, #896, .T. ) ;
#90 = CARTESIAN_POINT ( 'NONE',  ( 2.141999999999999904, 0.000000000000000000, 2.703500000000000014 ) ) ;
#91 = DIRECTION ( 'NONE',  ( 1.000000000000000000, -0.000000000000000000, 6.123233995736769734E-17 ) ) ;
#92 = CARTESIAN_POINT ( 'NONE',  ( 2.065500000000000558, -2.633135131372790649, 0.7076354053653149956 ) ) ;
#93 = ORIENTED_EDGE ( 'NONE', *, *, #956, .F. ) ;
#94 = CARTESIAN_POINT ( 'NONE',  ( 6.446599999961107663, 0.000000000000000000, 2.168404344971008128E-16 ) ) ;
#95 = CARTESIAN_POINT ( 'NONE',  ( 2.065500000000000558, -2.362281500915735410, -1.361533913432727783 ) ) ;
#96 = ORIENTED_EDGE ( 'NONE', *, *, #394, .F. ) ;
#97 = ADVANCED_FACE ( 'NONE', ( #572 ), #953, .T. ) ;
#98 = AXIS2_PLACEMENT_3D ( 'NONE', #689, #472, #60 ) ;
#99 = CARTESIAN_POINT ( 'NONE',  ( 6.446599999961107663, 3.404518101666085668E-16, -2.780000000029758667 ) ) ;
#100 =( LENGTH_UNIT ( ) NAMED_UNIT ( * ) SI_UNIT ( .MILLI., .METRE. ) );
#101 = VECTOR ( 'NONE', #865, 1000.000000000000000 ) ;
#102 = AXIS2_PLACEMENT_3D ( 'NONE', #503, #374, #284 ) ;
#103 = CARTESIAN_POINT ( 'NONE',  ( 2.141999999999999904, 0.000000000000000000, 2.703500000000000014 ) ) ;
#104 = ORIENTED_EDGE ( 'NONE', *, *, #672, .T. ) ;
#105 = B_SPLINE_CURVE_WITH_KNOTS ( 'NONE', 3,
 ( #30, #22, #425, #287, #280, #504, #587, #911, #915, #669, #351, #584, #193, #1008, #602, #826, #983, #739 ),
 .UNSPECIFIED., .F., .F.,
 ( 4, 2, 2, 2, 2, 2, 2, 2, 4 ),
 ( 0.000000000000000000, 0.06250000000000000000, 0.1250000000000000000, 0.1875000000000000000, 0.2500000000000000000, 0.3125000000000000000, 0.3750000000000000000, 0.4375000000000000000, 0.5000000000000000000 ),
 .UNSPECIFIED. ) ;
#106 = CARTESIAN_POINT ( 'NONE',  ( 0.8550000000000000933, 2.204364238465236069E-16, -1.800000000000000266 ) ) ;
#107 = EDGE_CURVE ( 'NONE', #881, #246, #560, .T. ) ;
#108 = CARTESIAN_POINT ( 'NONE',  ( 2.325599999999999667, -1.361533913432727783, 2.362281500915734522 ) ) ;
#109 = CARTESIAN_POINT ( 'NONE',  ( 1.530000000000000249, 1.141906680319861866, -2.443781372801650864 ) ) ;
#110 =( BOUNDED_SURFACE ( )  B_SPLINE_SURFACE ( 3, 3, ( 
 ( #7, #263, #757, #1006 ),
 ( #339, #656, #36, #579 ),
 ( #335, #273, #347, #2 ),
 ( #910, #814, #502, #737 ) ),
 .UNSPECIFIED., .F., .F., .F. ) 
 B_SPLINE_SURFACE_WITH_KNOTS ( ( 4, 4 ),
 ( 4, 4 ),
 ( 0.000000000000000000, 1.000000000000000000 ),
 ( 0.000000000000000000, 1.000000000000000000 ),
 .UNSPECIFIED. ) 
 GEOMETRIC_REPRESENTATION_ITEM ( )  RATIONAL_B_SPLINE_SURFACE ( (
 ( 1.000000000000000000, 0.3333333333333334259, 0.3333333333333334259, 1.000000000000000000),
 ( 0.8047378541243649375, 0.2682459513747884050, 0.2682459513747884050, 0.8047378541243649375),
 ( 0.8047378541243649375, 0.2682459513747884050, 0.2682459513747884050, 0.8047378541243649375),
 ( 1.000000000000000000, 0.3333333333333334259, 0.3333333333333334259, 1.000000000000000000) ) ) 
 REPRESENTATION_ITEM ( '' )  SURFACE ( )  );
#111 = CARTESIAN_POINT ( 'NONE',  ( 2.141999999999999460, -0.3583243807358175714, 2.703500000000000014 ) ) ;
#112 = ORIENTED_EDGE ( 'NONE', *, *, #672, .F. ) ;
#113 = DIRECTION ( 'NONE',  ( -1.000000000000000000, 0.000000000000000000, -6.123233995736769734E-17 ) ) ;
#114 = CARTESIAN_POINT ( 'NONE',  ( 0.1999999998669984014, 9.797174393178831081E-17, -0.8000000000000000444 ) ) ;
#115 = CARTESIAN_POINT ( 'NONE',  ( 2.325600000000000112, -2.362281500915736299, 1.361533913432727561 ) ) ;
#116 = FACE_OUTER_BOUND ( 'NONE', #80, .T. ) ;
#117 = DIRECTION ( 'NONE',  ( 7.498798913309293513E-33, -1.000000000000000000, -1.224646799147353207E-16 ) ) ;
#118 = ORIENTED_EDGE ( 'NONE', *, *, #424, .T. ) ;
#119 = CARTESIAN_POINT ( 'NONE',  ( 2.325599999999999667, 1.361533913432726672, -2.362281500915736299 ) ) ;
#120 = CARTESIAN_POINT ( 'NONE',  ( 2.141999999999999460, 1.365619536699425929, 2.360513860240439854 ) ) ;
#121 = DIRECTION ( 'NONE',  ( 0.7071067811865474617, 8.659560562354932858E-17, 0.7071067811865474617 ) ) ;
#122 = CARTESIAN_POINT ( 'NONE',  ( 6.329999999978825898, 9.797174393178826150E-17, -0.7999999999999994893 ) ) ;
#123 = VECTOR ( 'NONE', #621, 1000.000000000000000 ) ;
#124 = CARTESIAN_POINT ( 'NONE',  ( 2.402099999999999902, 0.000000000000000000, 2.703500000000000014 ) ) ;
#125 = VECTOR ( 'NONE', #629, 1000.000000000000000 ) ;
#126 = ORIENTED_EDGE ( 'NONE', *, *, #824, .F. ) ;
#127 = EDGE_CURVE ( 'NONE', #779, #970, #628, .T. ) ;
#128 = CARTESIAN_POINT ( 'NONE',  ( 2.325600000000000112, 2.161899308423480548, 1.661427057452182554 ) ) ;
#129 = CARTESIAN_POINT ( 'NONE',  ( 2.141999999999999904, 3.310832621494869645E-16, -2.703500000000000014 ) ) ;
#130 = DIRECTION ( 'NONE',  ( -1.000000000000000000, 0.000000000000000000, -6.123233995736769734E-17 ) ) ;
#131 = CARTESIAN_POINT ( 'NONE',  ( 1.530000000000000249, 0.000000000000000000, 2.696600000000000108 ) ) ;
#132 = ORIENTED_EDGE ( 'NONE', *, *, #807, .F. ) ;
#133 = ORIENTED_EDGE ( 'NONE', *, *, #154, .T. ) ;
#134 = FACE_OUTER_BOUND ( 'NONE', #908, .T. ) ;
#135 = FACE_OUTER_BOUND ( 'NONE', #308, .T. ) ;
#136 = CARTESIAN_POINT ( 'NONE',  ( 1.839449999999999807, 0.000000000000000000, 2.779999999999999805 ) ) ;
#137 = LINE ( 'NONE', #148, #101 ) ;
#138 = DIRECTION ( 'NONE',  ( -0.7071067811865493491, 0.000000000000000000, 0.7071067811865455743 ) ) ;
#139 = ORIENTED_EDGE ( 'NONE', *, *, #160, .T. ) ;
#140 = LINE ( 'NONE', #712, #86 ) ;
#141 = PLANE ( 'NONE',  #318 ) ;
#142 = DIRECTION ( 'NONE',  ( 1.000000000000000000, -0.000000000000000000, 6.023345402497293898E-17 ) ) ;
#143 = ORIENTED_EDGE ( 'NONE', *, *, #1018, .F. ) ;
#144 = CIRCLE ( 'NONE', #98, 1.000000000033196557 ) ;
#145 = CONICAL_SURFACE ( 'NONE', #728, 0.9999999999763531378, 0.7853981635287263785 ) ;
#146 = VECTOR ( 'NONE', #252, 1000.000000000000000 ) ;
#147 = CARTESIAN_POINT ( 'NONE',  ( 2.402099999999999458, 2.703430448640564698, -0.3581563766298844209 ) ) ;
#148 = CARTESIAN_POINT ( 'NONE',  ( 2.363849999999999785, 0.000000000000000000, 2.703500000000000014 ) ) ;
#149 = CARTESIAN_POINT ( 'NONE',  ( 5.684343512384060215E-11, 0.000000000000000000, -1.620000000059462764 ) ) ;
#150 = CARTESIAN_POINT ( 'NONE',  ( 0.8549999999999998712, 0.000000000000000000, 1.800000000000000266 ) ) ;
#151 = DIRECTION ( 'NONE',  ( -0.7071067810937200493, 0.000000000000000000, 0.7071067812793749852 ) ) ;
#152 = ORIENTED_EDGE ( 'NONE', *, *, #562, .F. ) ;
#153 = ORIENTED_EDGE ( 'NONE', *, *, #452, .F. ) ;
#154 = EDGE_CURVE ( 'NONE', #872, #51, #545, .T. ) ;
#155 = CARTESIAN_POINT ( 'NONE',  ( 6.329999999978825898, 0.000000000000000000, 5.637851297006660647E-16 ) ) ;
#156 = CARTESIAN_POINT ( 'NONE',  ( 1.530000000000000027, -2.373414277047564358, -1.286642144892726325 ) ) ;
#157 = CARTESIAN_POINT ( 'NONE',  ( 1.530000000000000027, 2.489865630108727856, 1.035751370874188115 ) ) ;
#158 = ORIENTED_EDGE ( 'NONE', *, *, #307, .T. ) ;
#159 = AXIS2_PLACEMENT_3D ( 'NONE', #45, #959, #383 ) ;
#160 = EDGE_CURVE ( 'NONE', #277, #735, #892, .T. ) ;
#161 = AXIS2_PLACEMENT_3D ( 'NONE', #248, #886, #236 ) ;
#162 = B_SPLINE_CURVE_WITH_KNOTS ( 'NONE', 3,
 ( #103, #111, #352, #366, #422, #438, #574, #675, #912, #760, #188, #831, #740, #433, #994, #754, #23, #682 ),
 .UNSPECIFIED., .F., .F.,
 ( 4, 2, 2, 2, 2, 2, 2, 2, 4 ),
 ( 0.000000000000000000, 0.06250000000000000000, 0.1250000000000000000, 0.1875000000000000000, 0.2500000000000000000, 0.3125000000000000000, 0.3750000000000000000, 0.4375000000000000000, 0.5000000000000000000 ),
 .UNSPECIFIED. ) ;
#163 = FACE_OUTER_BOUND ( 'NONE', #71, .T. ) ;
#164 = CARTESIAN_POINT ( 'NONE',  ( 1.530000000000000249, 1.643708079464715421, 2.169755167740459623 ) ) ;
#165 = ORIENTED_EDGE ( 'NONE', *, *, #56, .T. ) ;
#166 = CARTESIAN_POINT ( 'NONE',  ( -5.684378625484773795E-11, 0.000000000000000000, 0.9999999999763531378 ) ) ;
#167 = DIRECTION ( 'NONE',  ( 0.000000000000000000, 0.000000000000000000, 1.000000000000000000 ) ) ;
#168 = EDGE_LOOP ( 'NONE', ( #237, #312 ) ) ;
#169 = EDGE_CURVE ( 'NONE', #647, #707, #328, .T. ) ;
#170 = DIRECTION ( 'NONE',  ( 1.000000000000000000, -0.000000000000000000, 4.336808690044567189E-16 ) ) ;
#171 = CARTESIAN_POINT ( 'NONE',  ( 1.529999999999999805, -2.537605502500616339, 0.9125811906652341321 ) ) ;
#172 = DIRECTION ( 'NONE',  ( -1.000000000000000000, 0.000000000000000000, -6.123233995736769734E-17 ) ) ;
#173 = ORIENTED_EDGE ( 'NONE', *, *, #488, .T. ) ;
#174 = STYLED_ITEM ( 'NONE', ( #14 ), #243 ) ;
#175 = AXIS2_PLACEMENT_3D ( 'NONE', #1012, #130, #379 ) ;
#176 = AXIS2_PLACEMENT_3D ( 'NONE', #457, #514, #811 ) ;
#177 = CARTESIAN_POINT ( 'NONE',  ( 2.141999999999999904, 2.360712061689369978, 1.365504621358823334 ) ) ;
#178 = LINE ( 'NONE', #355, #525 ) ;
#179 = APPLICATION_PROTOCOL_DEFINITION ( 'draft international standard', 'automotive_design', 1998, #663 ) ;
#180 = CARTESIAN_POINT ( 'NONE',  ( 2.065500000000000558, -2.703500000000000458, -0.3538873224575006526 ) ) ;
#181 = ORIENTED_EDGE ( 'NONE', *, *, #205, .T. ) ;
#182 = CARTESIAN_POINT ( 'NONE',  ( 2.141999999999999904, 0.7035497820986148509, 2.634902772048088426 ) ) ;
#183 = CARTESIAN_POINT ( 'NONE',  ( 1.530000000000000027, 0.3430843665291924971, -2.696600000000000108 ) ) ;
#184 = DIRECTION ( 'NONE',  ( 0.000000000000000000, 0.000000000000000000, 1.000000000000000000 ) ) ;
#185 = FACE_OUTER_BOUND ( 'NONE', #549, .T. ) ;
#186 = ORIENTED_EDGE ( 'NONE', *, *, #169, .T. ) ;
#187 = B_SPLINE_CURVE_WITH_KNOTS ( 'NONE', 3,
 ( #201, #670, #999, #443, #749, #266, #827, #92, #841, #180, #658, #95, #17, #195, #426, #20, #985, #990 ),
 .UNSPECIFIED., .F., .F.,
 ( 4, 2, 2, 2, 2, 2, 2, 2, 4 ),
 ( 0.000000000000000000, 0.06250000000000000000, 0.1250000000000000000, 0.1875000000000000000, 0.2500000000000000000, 0.3125000000000000000, 0.3750000000000000000, 0.4375000000000000000, 0.5000000000000000000 ),
 .UNSPECIFIED. ) ;
#188 = CARTESIAN_POINT ( 'NONE',  ( 2.141999999999999904, -2.634704570599044171, -0.7036646974394065168 ) ) ;
#189 = ORIENTED_EDGE ( 'NONE', *, *, #346, .F. ) ;
#190 = ADVANCED_FACE ( 'NONE', ( #651 ), #974, .T. ) ;
#191 = CARTESIAN_POINT ( 'NONE',  ( 0.1800000000571344572, 0.000000000000000000, -1.800000000059753802 ) ) ;
#192 = VECTOR ( 'NONE', #564, 1000.000000000000000 ) ;
#193 = CARTESIAN_POINT ( 'NONE',  ( 2.402099999999999902, -2.164868805339723146, -1.658359200060165017 ) ) ;
#194 = AXIS2_PLACEMENT_3D ( 'NONE', #270, #512, #907 ) ;
#195 = CARTESIAN_POINT ( 'NONE',  ( 2.065500000000000558, -1.661427057452182554, -2.161899308423480992 ) ) ;
#196 = VERTEX_POINT ( 'NONE', #1044 ) ;
#197 = LINE ( 'NONE', #40, #528 ) ;
#198 = CARTESIAN_POINT ( 'NONE',  ( 2.325600000000000112, -2.161899308423480104, 1.661427057452182554 ) ) ;
#199 = EDGE_CURVE ( 'NONE', #34, #451, #736, .T. ) ;
#200 = DIRECTION ( 'NONE',  ( 1.000000000000000000, 0.000000000000000000, 1.560003125861724424E-16 ) ) ;
#201 = CARTESIAN_POINT ( 'NONE',  ( 2.065499999999999670, -3.310832621494869645E-16, 2.703500000000000014 ) ) ;
#202 = ORIENTED_EDGE ( 'NONE', *, *, #488, .F. ) ;
#203 = CARTESIAN_POINT ( 'NONE',  ( 2.141999999999999904, 3.310832621494869645E-16, -2.703500000000000014 ) ) ;
#204 = CARTESIAN_POINT ( 'NONE',  ( 0.1800000000571342351, 2.204364238538413025E-16, 1.800000000059753802 ) ) ;
#205 = EDGE_CURVE ( 'NONE', #597, #57, #105, .T. ) ;
#206 = CARTESIAN_POINT ( 'NONE',  ( 1.530000000000000027, -0.9126204350885503969, -2.537589974682282090 ) ) ;
#207 = ORIENTED_EDGE ( 'NONE', *, *, #79, .F. ) ;
#208 = CARTESIAN_POINT ( 'NONE',  ( 2.325600000000000112, 2.703500000000000014, -0.3538873224575001530 ) ) ;
#209 = CARTESIAN_POINT ( 'NONE',  ( 4.765000000000000568, 0.000000000000000000, 3.242252400742619989E-16 ) ) ;
#210 = CARTESIAN_POINT ( 'NONE',  ( 2.325600000000000112, -0.3538873224575009302, 2.703500000000000458 ) ) ;
#211 =( NAMED_UNIT ( * ) PLANE_ANGLE_UNIT ( ) SI_UNIT ( $, .RADIAN. ) );
#212 = AXIS2_PLACEMENT_3D ( 'NONE', #456, #778, #701 ) ;
#213 = DIRECTION ( 'NONE',  ( -1.000000000000000000, 0.000000000000000000, -6.123233995736769734E-17 ) ) ;
#214 = DIRECTION ( 'NONE',  ( -1.836970198661850822E-16, 0.000000000000000000, 1.000000000000000000 ) ) ;
#215 = ADVANCED_FACE ( 'NONE', ( #511 ), #998, .T. ) ;
#216 = ORIENTED_EDGE ( 'NONE', *, *, #437, .T. ) ;
#217 = DIRECTION ( 'NONE',  ( -1.694065894508600678E-16, 0.000000000000000000, 1.000000000000000000 ) ) ;
#218 = CARTESIAN_POINT ( 'NONE',  ( 2.325600000000000112, -0.7076354053653159948, 2.633135131372790649 ) ) ;
#219 = DIRECTION ( 'NONE',  ( -1.000000000000000000, -0.000000000000000000, -1.836970198661850822E-16 ) ) ;
#220 = DIRECTION ( 'NONE',  ( -1.000000000000000000, 0.000000000000000000, -6.123233995736769734E-17 ) ) ;
#221 = ORIENTED_EDGE ( 'NONE', *, *, #222, .T. ) ;
#222 = EDGE_CURVE ( 'NONE', #735, #439, #178, .T. ) ;
#223 = FACE_BOUND ( 'NONE', #878, .T. ) ;
#224 = CARTESIAN_POINT ( 'NONE',  ( 1.530000000000000027, 5.490909177796164720, 2.745454588898082804 ) ) ;
#225 = ORIENTED_EDGE ( 'NONE', *, *, #756, .F. ) ;
#226 = ORIENTED_EDGE ( 'NONE', *, *, #591, .T. ) ;
#227 = EDGE_CURVE ( 'NONE', #604, #541, #231, .T. ) ;
#228 = CARTESIAN_POINT ( 'NONE',  ( 2.402100000000000346, 2.164967165815866679, -1.658457560535497866 ) ) ;
#229 = CARTESIAN_POINT ( 'NONE',  ( 1.530000000000000471, -0.1713638111414536869, -2.696600000000000108 ) ) ;
#230 = DIRECTION ( 'NONE',  ( 1.204669080575544661E-16, 0.000000000000000000, -1.000000000000000000 ) ) ;
#231 = CIRCLE ( 'NONE', #81, 2.696599999922000723 ) ;
#232 = CIRCLE ( 'NONE', #1036, 2.779999999999999361 ) ;
#233 = CIRCLE ( 'NONE', #645, 2.779999999972915248 ) ;
#234 = LINE ( 'NONE', #1039, #125 ) ;
#235 = EDGE_CURVE ( 'NONE', #647, #812, #798, .T. ) ;
#236 = DIRECTION ( 'NONE',  ( 1.204669080575544661E-16, 0.000000000000000000, -1.000000000000000000 ) ) ;
#237 = ORIENTED_EDGE ( 'NONE', *, *, #877, .F. ) ;
#238 = ORIENTED_EDGE ( 'NONE', *, *, #285, .F. ) ;
#239 = DIRECTION ( 'NONE',  ( 0.000000000000000000, 0.000000000000000000, -1.000000000000000000 ) ) ;
#240 = CARTESIAN_POINT ( 'NONE',  ( 1.530000000000000249, -0.3430843665289288746, 2.696600000000000552 ) ) ;
#241 = CARTESIAN_POINT ( 'NONE',  ( 2.065500000000000114, 0.3538873224575002086, 2.703499999999999570 ) ) ;
#242 = ADVANCED_FACE ( 'NONE', ( #116 ), #399, .T. ) ;
#243 = MANIFOLD_SOLID_BREP ( 'Move Face2', #614 ) ;
#244 = CARTESIAN_POINT ( 'NONE',  ( 1.530000000000000249, -2.515820524837907080, 0.9709866724199192056 ) ) ;
#245 = CARTESIAN_POINT ( 'NONE',  ( 1.529999999999999805, 2.212036077807370216, 1.562412008211043313 ) ) ;
#246 = VERTEX_POINT ( 'NONE', #619 ) ;
#247 = AXIS2_PLACEMENT_3D ( 'NONE', #773, #142, #860 ) ;
#248 = CARTESIAN_POINT ( 'NONE',  ( 0.1799999999434473974, 0.000000000000000000, 1.102182118886333396E-17 ) ) ;
#249 = CARTESIAN_POINT ( 'NONE',  ( 2.065499999999999670, -3.310832621494869645E-16, 2.703500000000000014 ) ) ;
#250 = ORIENTED_EDGE ( 'NONE', *, *, #900, .F. ) ;
#251 = ADVANCED_FACE ( 'NONE', ( #390 ), #464, .F. ) ;
#252 = DIRECTION ( 'NONE',  ( -1.000000000000000000, 0.000000000000000000, -6.123233995736769734E-17 ) ) ;
#253 = CARTESIAN_POINT ( 'NONE',  ( 1.529999999999999805, -2.559063630531781541, 0.8523242168140030550 ) ) ;
#254 = CARTESIAN_POINT ( 'NONE',  ( 2.065500000000000558, 2.703499999999999570, 0.3538873224575005416 ) ) ;
#255 = EDGE_LOOP ( 'NONE', ( #173, #289 ) ) ;
#256 = CARTESIAN_POINT ( 'NONE',  ( 6.530000000012021744, 1.224646799188007400E-16, 1.000000000033197445 ) ) ;
#257 = CARTESIAN_POINT ( 'NONE',  ( 2.141999999999999904, 0.7036646974393143683, -2.634704570599061935 ) ) ;
#258 = CARTESIAN_POINT ( 'NONE',  ( 2.065500000000000114, 3.310832621494869645E-16, -2.703500000000000014 ) ) ;
#259 = ORIENTED_EDGE ( 'NONE', *, *, #169, .F. ) ;
#260 = AXIS2_PLACEMENT_3D ( 'NONE', #721, #796, #568 ) ;
#261 = VECTOR ( 'NONE', #474, 1000.000000000000000 ) ;
#262 = AXIS2_PLACEMENT_3D ( 'NONE', #573, #184, #993 ) ;
#263 = CARTESIAN_POINT ( 'NONE',  ( 1.530000000000000693, -5.393199999999999328, -2.696600000000000552 ) ) ;
#264 = SURFACE_STYLE_USAGE ( .BOTH. , #348 ) ;
#265 = EDGE_CURVE ( 'NONE', #952, #746, #232, .T. ) ;
#266 = CARTESIAN_POINT ( 'NONE',  ( 2.065500000000000558, -2.161899308423480104, 1.661427057452182554 ) ) ;
#267 = ORIENTED_EDGE ( 'NONE', *, *, #909, .F. ) ;
#268 = CYLINDRICAL_SURFACE ( 'NONE', #578, 2.703500000000000014 ) ;
#269 = DIRECTION ( 'NONE',  ( -1.000000000000000000, 0.000000000000000000, -6.123233995736769734E-17 ) ) ;
#270 = CARTESIAN_POINT ( 'NONE',  ( 6.529999999955179213, 0.000000000000000000, 6.505213034913024632E-16 ) ) ;
#271 = ORIENTED_EDGE ( 'NONE', *, *, #6, .T. ) ;
#272 = EDGE_CURVE ( 'NONE', #57, #597, #306, .T. ) ;
#273 = CARTESIAN_POINT ( 'NONE',  ( 1.564545411101916805, -5.559999999999997833, -2.779999999999999805 ) ) ;
#274 = CARTESIAN_POINT ( 'NONE',  ( 1.530000000000000027, 2.537605502500583476, -0.9125811906655071359 ) ) ;
#275 = SHAPE_DEFINITION_REPRESENTATION ( #389, #966 ) ;
#276 = CARTESIAN_POINT ( 'NONE',  ( 1.613400000000000389, 3.302382558580752520E-16, -2.696600000000000108 ) ) ;
#277 = VERTEX_POINT ( 'NONE', #122 ) ;
#278 = EDGE_CURVE ( 'NONE', #746, #952, #980, .T. ) ;
#279 = CARTESIAN_POINT ( 'NONE',  ( 2.325600000000000112, 0.7076354053653141074, 2.633135131372791093 ) ) ;
#280 = CARTESIAN_POINT ( 'NONE',  ( 2.402099999999999902, -1.658359200059641436, 2.164868805340173008 ) ) ;
#281 = AXIS2_PLACEMENT_3D ( 'NONE', #382, #1019, #617 ) ;
#282 = CARTESIAN_POINT ( 'NONE',  ( 0.1799999999434472864, 0.000000000000000000, 1.799999999946066964 ) ) ;
#283 = ORIENTED_EDGE ( 'NONE', *, *, #285, .T. ) ;
#284 = DIRECTION ( 'NONE',  ( -7.800015629392119348E-17, 0.000000000000000000, 1.000000000000000000 ) ) ;
#285 = EDGE_CURVE ( 'NONE', #750, #538, #935, .T. ) ;
#286 = LINE ( 'NONE', #204, #345 ) ;
#287 = CARTESIAN_POINT ( 'NONE',  ( 2.402099999999998570, -1.365504621358710979, 2.360712061689334895 ) ) ;
#288 = CARTESIAN_POINT ( 'NONE',  ( 1.530000000000000027, -0.7108774720066337593, -2.603905783690757758 ) ) ;
#289 = ORIENTED_EDGE ( 'NONE', *, *, #762, .T. ) ;
#290 = CARTESIAN_POINT ( 'NONE',  ( 2.325600000000000556, 2.161899308423480548, -1.661427057452182332 ) ) ;
#291 = CARTESIAN_POINT ( 'NONE',  ( 1.613400000000000389, 3.404518101629641773E-16, -2.779999999999999361 ) ) ;
#292 =( NAMED_UNIT ( * ) SI_UNIT ( $, .STERADIAN. ) SOLID_ANGLE_UNIT ( ) );
#293 = DIRECTION ( 'NONE',  ( -1.000000000000000000, 0.000000000000000000, -6.123233995736769734E-17 ) ) ;
#294 = VERTEX_POINT ( 'NONE', #845 ) ;
#295 = DIRECTION ( 'NONE',  ( 0.7071067811865474617, 0.000000000000000000, -0.7071067811865474617 ) ) ;
#296 = PLANE ( 'NONE',  #869 ) ;
#297 = DIRECTION ( 'NONE',  ( -7.800015629392120580E-17, 0.000000000000000000, 1.000000000000000000 ) ) ;
#298 = AXIS2_PLACEMENT_3D ( 'NONE', #880, #486, #898 ) ;
#299 = CARTESIAN_POINT ( 'NONE',  ( 1.839450000000000252, 3.404518101629641773E-16, -2.779999999999999805 ) ) ;
#300 = FACE_OUTER_BOUND ( 'NONE', #1029, .T. ) ;
#301 = EDGE_CURVE ( 'NONE', #538, #952, #926, .T. ) ;
#302 = ORIENTED_EDGE ( 'NONE', *, *, #1048, .T. ) ;
#303 = DIRECTION ( 'NONE',  ( 0.000000000000000000, 1.000000000000000000, 0.000000000000000000 ) ) ;
#304 = FACE_OUTER_BOUND ( 'NONE', #975, .T. ) ;
#305 = CYLINDRICAL_SURFACE ( 'NONE', #159, 2.779999999999999805 ) ;
#306 = B_SPLINE_CURVE_WITH_KNOTS ( 'NONE', 3,
 ( #766, #37, #687, #47, #864, #228, #624, #616, #147, #776, #53, #949, #607, #536, #520, #470, #544, #852 ),
 .UNSPECIFIED., .F., .F.,
 ( 4, 2, 2, 2, 2, 2, 2, 2, 4 ),
 ( 0.5000000000000000000, 0.5625000000000000000, 0.6250000000000000000, 0.6875000000000000000, 0.7500000000000000000, 0.8125000000000001110, 0.8750000000000000000, 0.9375000000000000000, 1.000000000000000000 ),
 .UNSPECIFIED. ) ;
#307 = EDGE_CURVE ( 'NONE', #196, #533, #763, .T. ) ;
#308 = EDGE_LOOP ( 'NONE', ( #143, #1020, #655, #711 ) ) ;
#309 = FACE_OUTER_BOUND ( 'NONE', #633, .T. ) ;
#310 = CARTESIAN_POINT ( 'NONE',  ( 2.141999999999999904, 0.000000000000000000, 1.311596721886816202E-16 ) ) ;
#311 = CARTESIAN_POINT ( 'NONE',  ( 6.530000000012023520, 0.000000000000000000, -1.000000000033197001 ) ) ;
#312 = ORIENTED_EDGE ( 'NONE', *, *, #981, .F. ) ;
#313 =( NAMED_UNIT ( * ) SI_UNIT ( $, .STERADIAN. ) SOLID_ANGLE_UNIT ( ) );
#314 = DIRECTION ( 'NONE',  ( -1.000000000000000000, 0.000000000000000000, -6.123233995736769734E-17 ) ) ;
#315 = DIRECTION ( 'NONE',  ( 1.000000000000000000, 0.000000000000000000, 1.836970198661850822E-16 ) ) ;
#316 = DIRECTION ( 'NONE',  ( 0.000000000000000000, 0.000000000000000000, 1.000000000000000000 ) ) ;
#317 = AXIS2_PLACEMENT_3D ( 'NONE', #610, #934, #214 ) ;
#318 = AXIS2_PLACEMENT_3D ( 'NONE', #782, #385, #1026 ) ;
#319 = ORIENTED_EDGE ( 'NONE', *, *, #641, .F. ) ;
#320 = EDGE_CURVE ( 'NONE', #323, #803, #799, .T. ) ;
#321 = CARTESIAN_POINT ( 'NONE',  ( 1.529999999999999583, -1.643708079464803129, -2.169755167740445412 ) ) ;
#322 = CARTESIAN_POINT ( 'NONE',  ( 2.065500000000001002, 0.3538873224575006526, -2.703500000000000014 ) ) ;
#323 = VERTEX_POINT ( 'NONE', #772 ) ;
#324 = CARTESIAN_POINT ( 'NONE',  ( 1.529999999999999583, -1.775298635351141296, 2.038322179489203467 ) ) ;
#325 = DIRECTION ( 'NONE',  ( -1.000000000000000000, -0.000000000000000000, -1.560003125861724424E-16 ) ) ;
#326 = EDGE_LOOP ( 'NONE', ( #913, #158, #393, #729 ) ) ;
#327 = CARTESIAN_POINT ( 'NONE',  ( 4.765000000000000568, 0.000000000000000000, 3.242252400742619989E-16 ) ) ;
#328 = LINE ( 'NONE', #333, #412 ) ;
#329 = EDGE_LOOP ( 'NONE', ( #93, #75, #118, #353 ) ) ;
#330 =( GEOMETRIC_REPRESENTATION_CONTEXT ( 3 ) GLOBAL_UNCERTAINTY_ASSIGNED_CONTEXT ( ( #367 ) ) GLOBAL_UNIT_ASSIGNED_CONTEXT ( ( #100, #211, #292 ) ) REPRESENTATION_CONTEXT ( 'NONE', 'WORKASPACE' ) );
#331 = CIRCLE ( 'NONE', #801, 2.696599999922000723 ) ;
#332 = CARTESIAN_POINT ( 'NONE',  ( -5.684378625484773795E-11, 0.000000000000000000, 0.9999999999763531378 ) ) ;
#333 = CARTESIAN_POINT ( 'NONE',  ( 2.233800000000000008, 0.000000000000000000, 2.779999999999999805 ) ) ;
#334 = ORIENTED_EDGE ( 'NONE', *, *, #909, .T. ) ;
#335 = CARTESIAN_POINT ( 'NONE',  ( 1.564545411101916361, 3.404518101629641280E-16, -2.779999999999999805 ) ) ;
#336 = FACE_OUTER_BOUND ( 'NONE', #589, .T. ) ;
#337 = CARTESIAN_POINT ( 'NONE',  ( 6.446600000017951970, 0.000000000000000000, 2.110433828981630033E-16 ) ) ;
#338 = ORIENTED_EDGE ( 'NONE', *, *, #623, .F. ) ;
#339 = CARTESIAN_POINT ( 'NONE',  ( 1.530000000000000915, 3.362212174498450088E-16, -2.745454588898083248 ) ) ;
#340 = CARTESIAN_POINT ( 'NONE',  ( -5.684360255782787641E-11, 0.000000000000000000, 2.318582358048655205E-42 ) ) ;
#341 = DIRECTION ( 'NONE',  ( 0.000000000000000000, 0.000000000000000000, -1.000000000000000000 ) ) ;
#342 = ORIENTED_EDGE ( 'NONE', *, *, #900, .T. ) ;
#343 = AXIS2_PLACEMENT_3D ( 'NONE', #371, #941, #870 ) ;
#344 = CIRCLE ( 'NONE', #937, 2.779999999999999805 ) ;
#345 = VECTOR ( 'NONE', #121, 1000.000000000000114 ) ;
#346 = EDGE_CURVE ( 'NONE', #34, #952, #577, .T. ) ;
#347 = CARTESIAN_POINT ( 'NONE',  ( 1.564545411101916361, -5.559999999999998721, 2.779999999999998028 ) ) ;
#348 = SURFACE_SIDE_STYLE ('',( #665 ) ) ;
#349 = FACE_BOUND ( 'NONE', #586, .T. ) ;
#350 = ORIENTED_EDGE ( 'NONE', *, *, #635, .T. ) ;
#351 = CARTESIAN_POINT ( 'NONE',  ( 2.402099999999999902, -2.634704570599044171, -0.7036646974394065168 ) ) ;
#352 = CARTESIAN_POINT ( 'NONE',  ( 2.141999999999999460, -0.7036646974393329090, 2.634704570599192053 ) ) ;
#353 = ORIENTED_EDGE ( 'NONE', *, *, #6, .F. ) ;
#354 = DIRECTION ( 'NONE',  ( 0.000000000000000000, 0.000000000000000000, 1.000000000000000000 ) ) ;
#355 = CARTESIAN_POINT ( 'NONE',  ( -5.684341886080801487E-11, 1.224646799118394123E-16, -0.9999999999763531378 ) ) ;
#356 = FACE_OUTER_BOUND ( 'NONE', #903, .T. ) ;
#357 = ORIENTED_EDGE ( 'NONE', *, *, #301, .T. ) ;
#358 = ADVANCED_FACE ( 'NONE', ( #946, #223 ), #141, .T. ) ;
#359 = CARTESIAN_POINT ( 'NONE',  ( 2.325600000000000112, 1.661427057452182332, -2.161899308423479660 ) ) ;
#360 = CARTESIAN_POINT ( 'NONE',  ( 2.141999999999999460, 2.703430448640564698, -0.3581563766298844209 ) ) ;
#361 = CIRCLE ( 'NONE', #559, 1.799999999946066964 ) ;
#362 = AXIS2_PLACEMENT_3D ( 'NONE', #631, #883, #800 ) ;
#363 = DIRECTION ( 'NONE',  ( -1.000000000000000000, 0.000000000000000000, -6.123233995736769734E-17 ) ) ;
#364 = FILL_AREA_STYLE ('',( #759 ) ) ;
#365 = AXIS2_PLACEMENT_3D ( 'NONE', #609, #767, #529 ) ;
#366 = CARTESIAN_POINT ( 'NONE',  ( 2.141999999999999016, -1.365504621358710979, 2.360712061689334895 ) ) ;
#367 = UNCERTAINTY_MEASURE_WITH_UNIT (LENGTH_MEASURE( 1.000000000000000082E-05 ), #100, 'distance_accuracy_value', 'NONE');
#368 = ORIENTED_EDGE ( 'NONE', *, *, #523, .T. ) ;
#369 = CARTESIAN_POINT ( 'NONE',  ( 2.142000000000000348, 1.365504621358727189, -2.360712061689465902 ) ) ;
#370 = FACE_OUTER_BOUND ( 'NONE', #819, .T. ) ;
#371 = CARTESIAN_POINT ( 'NONE',  ( 1.613400000000000167, 0.000000000000000000, 9.879225728721689882E-17 ) ) ;
#372 = CARTESIAN_POINT ( 'NONE',  ( 1.530000000000000249, -0.9709866724199310850, -2.515820524837890648 ) ) ;
#373 = PLANE ( 'NONE',  #590 ) ;
#374 = DIRECTION ( 'NONE',  ( -1.000000000000000000, 0.000000000000000000, -6.123233995736769734E-17 ) ) ;
#375 = CARTESIAN_POINT ( 'NONE',  ( 2.065500000000000114, 3.310832621494869645E-16, -2.703500000000000014 ) ) ;
#376 = DIRECTION ( 'NONE',  ( 0.000000000000000000, 0.000000000000000000, 1.000000000000000000 ) ) ;
#377 = ORIENTED_EDGE ( 'NONE', *, *, #877, .T. ) ;
#378 = ORIENTED_EDGE ( 'NONE', *, *, #394, .T. ) ;
#379 = DIRECTION ( 'NONE',  ( -1.204669080539449097E-16, 0.000000000000000000, 1.000000000000000000 ) ) ;
#380 = CIRCLE ( 'NONE', #317, 0.9999999999763531378 ) ;
#381 = ADVANCED_FACE ( 'NONE', ( #309 ), #789, .T. ) ;
#382 = CARTESIAN_POINT ( 'NONE',  ( 2.325600000000000112, 1.424019298048540093E-16, -2.741750000000000131 ) ) ;
#383 = DIRECTION ( 'NONE',  ( -7.800015629392119348E-17, 0.000000000000000000, 1.000000000000000000 ) ) ;
#384 = ORIENTED_EDGE ( 'NONE', *, *, #154, .F. ) ;
#385 = DIRECTION ( 'NONE',  ( -1.000000000000000000, 0.000000000000000000, -6.123233995736769734E-17 ) ) ;
#386 = CARTESIAN_POINT ( 'NONE',  ( 1.613399999999999945, 0.000000000000000000, 2.779999999999999361 ) ) ;
#387 = CARTESIAN_POINT ( 'NONE',  ( 2.065500000000000114, 1.264753981819429891E-16, -2.741750000000000131 ) ) ;
#388 = ORIENTED_EDGE ( 'NONE', *, *, #437, .F. ) ;
#389 = PRODUCT_DEFINITION_SHAPE ( 'NONE', 'NONE',  #492 ) ;
#390 = FACE_OUTER_BOUND ( 'NONE', #928, .T. ) ;
#391 = CARTESIAN_POINT ( 'NONE',  ( 1.564545411101916361, 0.000000000000000000, 2.779999999999999805 ) ) ;
#392 = CARTESIAN_POINT ( 'NONE',  ( 2.141999999999999904, 0.000000000000000000, 1.311596721886816202E-16 ) ) ;
#393 = ORIENTED_EDGE ( 'NONE', *, *, #419, .T. ) ;
#394 = EDGE_CURVE ( 'NONE', #513, #1001, #234, .T. ) ;
#395 = DIRECTION ( 'NONE',  ( -1.204669080539449097E-16, 0.000000000000000000, 1.000000000000000000 ) ) ;
#396 = LINE ( 'NONE', #150, #261 ) ;
#397 = CARTESIAN_POINT ( 'NONE',  ( 1.529999999999999805, -1.141906680319790368, 2.443781372801724139 ) ) ;
#398 = CARTESIAN_POINT ( 'NONE',  ( 1.529999999999999805, 2.499382482679245232, 1.012509276673170033 ) ) ;
#399 = CONICAL_SURFACE ( 'NONE', #12, 2.780000000029758667, 0.7853981633974457255 ) ;
#400 = AXIS2_PLACEMENT_3D ( 'NONE', #460, #1022, #454 ) ;
#401 = EDGE_LOOP ( 'NONE', ( #638, #283 ) ) ;
#402 = CARTESIAN_POINT ( 'NONE',  ( 1.529999999999999805, -2.489865630108718531, -1.035751370874187671 ) ) ;
#403 = CARTESIAN_POINT ( 'NONE',  ( 1.529999999999999583, 0.4239621937241122573, 2.672933391580619489 ) ) ;
#404 = VERTEX_POINT ( 'NONE', #874 ) ;
#405 = DIRECTION ( 'NONE',  ( -6.123233995736769734E-17, 0.000000000000000000, 1.000000000000000000 ) ) ;
#406 = CARTESIAN_POINT ( 'NONE',  ( 1.529999999999999583, 2.696633687470213037, -0.1712786706982385443 ) ) ;
#407 = EDGE_LOOP ( 'NONE', ( #837, #964 ) ) ;
#408 = CARTESIAN_POINT ( 'NONE',  ( 1.530000000000000249, -1.012519928971677974, 2.499378263171823100 ) ) ;
#409 = DIRECTION ( 'NONE',  ( 1.000000000000000000, -0.000000000000000000, 6.123233995736769734E-17 ) ) ;
#410 = EDGE_CURVE ( 'NONE', #513, #872, #714, .T. ) ;
#411 = VERTEX_POINT ( 'NONE', #550 ) ;
#412 = VECTOR ( 'NONE', #172, 1000.000000000000000 ) ;
#413 = AXIS2_PLACEMENT_3D ( 'NONE', #209, #925, #497 ) ;
#414 = AXIS2_PLACEMENT_3D ( 'NONE', #1, #976, #895 ) ;
#415 = DIRECTION ( 'NONE',  ( 0.000000000000000000, 0.000000000000000000, 1.000000000000000000 ) ) ;
#416 = CARTESIAN_POINT ( 'NONE',  ( 1.530000000000000027, -1.320909397486968177E-16, 2.696600000000000552 ) ) ;
#417 = CARTESIAN_POINT ( 'NONE',  ( 1.530000000000000027, 2.038322179489108432, 1.775298635351236332 ) ) ;
#418 = ORIENTED_EDGE ( 'NONE', *, *, #840, .T. ) ;
#419 = EDGE_CURVE ( 'NONE', #533, #500, #396, .T. ) ;
#420 = DIRECTION ( 'NONE',  ( 0.000000000000000000, 0.000000000000000000, -1.000000000000000000 ) ) ;
#421 = DIRECTION ( 'NONE',  ( 0.000000000000000000, 0.000000000000000000, 1.000000000000000000 ) ) ;
#422 = CARTESIAN_POINT ( 'NONE',  ( 2.141999999999999460, -1.658359200059641436, 2.164868805340173008 ) ) ;
#423 = ORIENTED_EDGE ( 'NONE', *, *, #623, .T. ) ;
#424 = EDGE_CURVE ( 'NONE', #970, #779, #233, .T. ) ;
#425 = CARTESIAN_POINT ( 'NONE',  ( 2.402099999999999902, -0.7036646974393329090, 2.634704570599192053 ) ) ;
#426 = CARTESIAN_POINT ( 'NONE',  ( 2.065500000000000114, -1.361533913432726450, -2.362281500915736743 ) ) ;
#427 = EDGE_LOOP ( 'NONE', ( #842, #342, #806, #660 ) ) ;
#428 = AXIS2_PLACEMENT_3D ( 'NONE', #276, #117, #516 ) ;
#429 = AXIS2_PLACEMENT_3D ( 'NONE', #893, #788, #395 ) ;
#430 = CARTESIAN_POINT ( 'NONE',  ( 2.103749999999999787, 3.310832621494869645E-16, -2.703500000000000014 ) ) ;
#431 = ADVANCED_FACE ( 'NONE', ( #185, #349 ), #505, .T. ) ;
#432 = DIRECTION ( 'NONE',  ( 0.000000000000000000, 0.000000000000000000, 1.000000000000000000 ) ) ;
#433 = CARTESIAN_POINT ( 'NONE',  ( 2.142000000000000348, -1.658457560535939734, -2.164967165815498529 ) ) ;
#434 = ORIENTED_EDGE ( 'NONE', *, *, #601, .T. ) ;
#435 = CARTESIAN_POINT ( 'NONE',  ( 2.325600000000000112, -2.703500000000000458, -0.3538873224575006526 ) ) ;
#436 = CARTESIAN_POINT ( 'NONE',  ( 1.530000000000000471, 2.356171455687541602E-16, -2.696600000000000108 ) ) ;
#437 = EDGE_CURVE ( 'NONE', #451, #746, #899, .T. ) ;
#438 = CARTESIAN_POINT ( 'NONE',  ( 2.141999999999999904, -2.164967165816022110, 1.658457560535490094 ) ) ;
#439 = VERTEX_POINT ( 'NONE', #923 ) ;
#440 = FACE_OUTER_BOUND ( 'NONE', #652, .T. ) ;
#441 = CARTESIAN_POINT ( 'NONE',  ( 2.325600000000000112, -2.362281500915735410, -1.361533913432727783 ) ) ;
#442 = CARTESIAN_POINT ( 'NONE',  ( 1.530000000000000027, 2.515820524837943495, -0.9709866724198831234 ) ) ;
#443 = CARTESIAN_POINT ( 'NONE',  ( 2.065499999999999670, -1.361533913432727783, 2.362281500915734522 ) ) ;
#444 = ORIENTED_EDGE ( 'NONE', *, *, #601, .F. ) ;
#445 = CARTESIAN_POINT ( 'NONE',  ( 2.325600000000000556, 0.3538873224575006526, -2.703500000000000014 ) ) ;
#446 = CARTESIAN_POINT ( 'NONE',  ( 2.065500000000000114, 3.404518101629641773E-16, -2.779999999999999805 ) ) ;
#447 = CONICAL_SURFACE ( 'NONE', #194, 0.9999999999763538039, 0.7853981633974485010 ) ;
#448 = CARTESIAN_POINT ( 'NONE',  ( 1.613399999999999945, 0.000000000000000000, 2.696600000000000108 ) ) ;
#449 = CIRCLE ( 'NONE', #429, 1.800000000000000266 ) ;
#450 = FACE_OUTER_BOUND ( 'NONE', #540, .T. ) ;
#451 = VERTEX_POINT ( 'NONE', #667 ) ;
#452 = EDGE_CURVE ( 'NONE', #1042, #66, #848, .T. ) ;
#453 = DIRECTION ( 'NONE',  ( 0.7071067811865477948, 0.000000000000000000, -0.7071067811865473507 ) ) ;
#454 = DIRECTION ( 'NONE',  ( 0.000000000000000000, 0.000000000000000000, 1.000000000000000000 ) ) ;
#455 = CARTESIAN_POINT ( 'NONE',  ( 0.8549999999999999822, 0.000000000000000000, 5.235365066354940008E-17 ) ) ;
#456 = CARTESIAN_POINT ( 'NONE',  ( 2.065500000000000114, 0.000000000000000000, 1.264753981819429891E-16 ) ) ;
#457 = CARTESIAN_POINT ( 'NONE',  ( 6.529999999999999361, 2.161501600495080157E-16, -1.348300000000000054 ) ) ;
#458 = EDGE_CURVE ( 'NONE', #246, #881, #187, .T. ) ;
#459 = CARTESIAN_POINT ( 'NONE',  ( 2.325600000000000112, -2.703500000000000014, 0.3538873224574999310 ) ) ;
#460 = CARTESIAN_POINT ( 'NONE',  ( 2.402099999999999902, 0.000000000000000000, 1.470862038115927143E-16 ) ) ;
#461 = PLANE ( 'NONE',  #281 ) ;
#462 = FACE_OUTER_BOUND ( 'NONE', #88, .T. ) ;
#463 = EDGE_LOOP ( 'NONE', ( #487, #221, #207, #10 ) ) ;
#464 = CONICAL_SURFACE ( 'NONE', #31, 0.9999999999763531378, 0.7853981635287263785 ) ;
#465 = CARTESIAN_POINT ( 'NONE',  ( 1.530000000000000915, 3.362212174498449595E-16, -2.745454588898083248 ) ) ;
#466 = AXIS2_PLACEMENT_3D ( 'NONE', #822, #596, #902 ) ;
#467 = LINE ( 'NONE', #695, #123 ) ;
#468 = ORIENTED_EDGE ( 'NONE', *, *, #320, .T. ) ;
#469 = DIRECTION ( 'NONE',  ( 1.000000000000000000, -0.000000000000000000, 4.336808690044567189E-16 ) ) ;
#470 = CARTESIAN_POINT ( 'NONE',  ( 2.402100000000000346, 0.7035497820986148509, 2.634902772048088426 ) ) ;
#471 = CARTESIAN_POINT ( 'NONE',  ( 1.530000000000000471, 0.000000000000000000, 2.745454588898083248 ) ) ;
#472 = DIRECTION ( 'NONE',  ( -1.000000000000000000, 0.000000000000000000, -4.336808690044567189E-16 ) ) ;
#473 = ADVANCED_FACE ( 'NONE', ( #916 ), #447, .F. ) ;
#474 = DIRECTION ( 'NONE',  ( -1.000000000000000000, 0.000000000000000000, -6.123233995736769734E-17 ) ) ;
#475 = CARTESIAN_POINT ( 'NONE',  ( 1.530000000000000027, -2.471726841582051026, -1.078409224164279756 ) ) ;
#476 = CARTESIAN_POINT ( 'NONE',  ( 2.065500000000000114, 2.703500000000000014, -0.3538873224575001530 ) ) ;
#477 = ORIENTED_EDGE ( 'NONE', *, *, #320, .F. ) ;
#478 = CARTESIAN_POINT ( 'NONE',  ( 1.529999999999999805, -2.633421532096055451, -0.6741228679071403773 ) ) ;
#479 = CARTESIAN_POINT ( 'NONE',  ( 2.065500000000000114, 2.633135131372791982, 0.7076354053653143295 ) ) ;
#480 = AXIS2_PLACEMENT_3D ( 'NONE', #392, #710, #316 ) ;
#481 = AXIS2_PLACEMENT_3D ( 'NONE', #327, #968, #63 ) ;
#482 = ORIENTED_EDGE ( 'NONE', *, *, #265, .T. ) ;
#483 = CIRCLE ( 'NONE', #716, 0.8000000000000000444 ) ;
#484 = ADVANCED_FACE ( 'NONE', ( #356 ), #818, .T. ) ;
#485 = CARTESIAN_POINT ( 'NONE',  ( 1.530000000000000027, -2.212036077807292500, -1.562412008211055303 ) ) ;
#486 = DIRECTION ( 'NONE',  ( -1.000000000000000000, 0.000000000000000000, -4.336808690044567189E-16 ) ) ;
#487 = ORIENTED_EDGE ( 'NONE', *, *, #889, .T. ) ;
#488 = EDGE_CURVE ( 'NONE', #411, #775, #162, .T. ) ;
#489 = CARTESIAN_POINT ( 'NONE',  ( 2.363849999999999785, 0.000000000000000000, 1.447440668082240027E-16 ) ) ;
#490 = DIRECTION ( 'NONE',  ( 0.000000000000000000, 0.000000000000000000, -1.000000000000000000 ) ) ;
#491 = EDGE_LOOP ( 'NONE', ( #25, #683, #112, #1034 ) ) ;
#492 = PRODUCT_DEFINITION ( 'UNKNOWN', '', #662, #530 ) ;
#493 = CARTESIAN_POINT ( 'NONE',  ( 2.363849999999999785, 0.000000000000000000, 1.447440668082240027E-16 ) ) ;
#494 = CARTESIAN_POINT ( 'NONE',  ( 1.529999999999999805, -2.522806503104377818, 0.9526611840911035634 ) ) ;
#495 = CARTESIAN_POINT ( 'NONE',  ( 2.065499999999999670, 2.362281500915735410, 1.361533913432727338 ) ) ;
#496 = ORIENTED_EDGE ( 'NONE', *, *, #840, .F. ) ;
#497 = DIRECTION ( 'NONE',  ( 0.000000000000000000, 0.000000000000000000, 1.000000000000000000 ) ) ;
#498 = DIRECTION ( 'NONE',  ( -0.7071067810937198272, 8.659560563491741820E-17, -0.7071067812793752072 ) ) ;
#499 = CYLINDRICAL_SURFACE ( 'NONE', #954, 2.779999999999999805 ) ;
#500 = VERTEX_POINT ( 'NONE', #282 ) ;
#501 = ADVANCED_FACE ( 'NONE', ( #1009 ), #499, .T. ) ;
#502 = CARTESIAN_POINT ( 'NONE',  ( 1.613399999999999723, -5.559999999999998721, 2.779999999999998028 ) ) ;
#503 = CARTESIAN_POINT ( 'NONE',  ( 1.839450000000000029, 0.000000000000000000, 1.126338277345800118E-16 ) ) ;
#504 = CARTESIAN_POINT ( 'NONE',  ( 2.402100000000000346, -2.164967165816022110, 1.658457560535490094 ) ) ;
#505 = PLANE ( 'NONE',  #466 ) ;
#506 = ORIENTED_EDGE ( 'NONE', *, *, #719, .T. ) ;
#507 = CARTESIAN_POINT ( 'NONE',  ( 0.1800000000571343461, 0.000000000000000000, -1.450067659507090630E-48 ) ) ;
#508 = ORIENTED_EDGE ( 'NONE', *, *, #762, .F. ) ;
#509 = AXIS2_PLACEMENT_3D ( 'NONE', #1032, #314, #794 ) ;
#510 = CARTESIAN_POINT ( 'NONE',  ( 2.325600000000000112, 0.3538873224575002086, 2.703499999999999570 ) ) ;
#511 = FACE_OUTER_BOUND ( 'NONE', #888, .T. ) ;
#512 = DIRECTION ( 'NONE',  ( 1.000000000000000000, -0.000000000000000000, 4.336808690044567189E-16 ) ) ;
#513 = VERTEX_POINT ( 'NONE', #846 ) ;
#514 = DIRECTION ( 'NONE',  ( 1.000000000000000000, 0.000000000000000000, -1.034525261147459999E-16 ) ) ;
#515 = CARTESIAN_POINT ( 'NONE',  ( 1.530000000000000027, 1.562412008211041536, -2.212036077807370660 ) ) ;
#516 = DIRECTION ( 'NONE',  ( 0.000000000000000000, 1.224646799147351235E-16, -1.000000000000000000 ) ) ;
#517 = ORIENTED_EDGE ( 'NONE', *, *, #346, .T. ) ;
#518 = CARTESIAN_POINT ( 'NONE',  ( 2.325600000000000112, 3.310832621494869645E-16, -2.703500000000000014 ) ) ;
#519 = CARTESIAN_POINT ( 'NONE',  ( 2.141999999999999904, 1.658457560535604225, 2.164967165815760097 ) ) ;
#520 = CARTESIAN_POINT ( 'NONE',  ( 2.402099999999999458, 1.365619536699425929, 2.360513860240439854 ) ) ;
#521 = CARTESIAN_POINT ( 'NONE',  ( 1.530000000000000027, -0.9526818040423374878, -2.522798344420169592 ) ) ;
#522 = ORIENTED_EDGE ( 'NONE', *, *, #11, .T. ) ;
#523 = EDGE_CURVE ( 'NONE', #597, #404, #137, .T. ) ;
#524 = DIRECTION ( 'NONE',  ( -1.000000000000000000, 0.000000000000000000, -6.123233995736769734E-17 ) ) ;
#525 = VECTOR ( 'NONE', #498, 1000.000000000000114 ) ;
#526 = AXIS2_PLACEMENT_3D ( 'NONE', #650, #315, #795 ) ;
#527 = CARTESIAN_POINT ( 'NONE',  ( 2.325600000000000112, -0.7076354053653137743, -2.633135131372792426 ) ) ;
#528 = VECTOR ( 'NONE', #1005, 1000.000000000000000 ) ;
#529 = DIRECTION ( 'NONE',  ( 6.023345402631982037E-17, 0.000000000000000000, -1.000000000000000000 ) ) ;
#530 = PRODUCT_DEFINITION_CONTEXT ( 'detailed design', #663, 'design' ) ;
#531 = VERTEX_POINT ( 'NONE', #947 ) ;
#532 = ADVANCED_FACE ( 'NONE', ( #1023 ), #747, .T. ) ;
#533 = VERTEX_POINT ( 'NONE', #694 ) ;
#534 = CARTESIAN_POINT ( 'NONE',  ( 2.325600000000000112, 1.661427057452183220, 2.161899308423480992 ) ) ;
#535 = CARTESIAN_POINT ( 'NONE',  ( 2.141999999999999904, 0.000000000000000000, 2.779999999999999805 ) ) ;
#536 = CARTESIAN_POINT ( 'NONE',  ( 2.402100000000000346, 1.658457560535604225, 2.164967165815760097 ) ) ;
#537 = CARTESIAN_POINT ( 'NONE',  ( 1.530000000000000249, 5.393199999999999328, 2.696599999999999664 ) ) ;
#538 = VERTEX_POINT ( 'NONE', #1013 ) ;
#539 = CARTESIAN_POINT ( 'NONE',  ( 1.530000000000000471, 5.490909177796164720, -2.745454588898082360 ) ) ;
#540 = EDGE_LOOP ( 'NONE', ( #388, #46, #517, #482 ) ) ;
#541 = VERTEX_POINT ( 'NONE', #933 ) ;
#542 = DIRECTION ( 'NONE',  ( -1.000000000000000000, 0.000000000000000000, -6.123233995736769734E-17 ) ) ;
#543 = ADVANCED_FACE ( 'NONE', ( #790, #304 ), #461, .T. ) ;
#544 = CARTESIAN_POINT ( 'NONE',  ( 2.402099999999999458, 0.3586882289656074252, 2.703500000000000458 ) ) ;
#545 = CIRCLE ( 'NONE', #298, 1.000000000033196557 ) ;
#546 = FACE_OUTER_BOUND ( 'NONE', #326, .T. ) ;
#547 = AXIS2_PLACEMENT_3D ( 'NONE', #940, #28, #217 ) ;
#548 = CARTESIAN_POINT ( 'NONE',  ( 2.402099999999999902, 3.310832621494869645E-16, -2.703500000000000014 ) ) ;
#549 = EDGE_LOOP ( 'NONE', ( #828, #477 ) ) ;
#550 = CARTESIAN_POINT ( 'NONE',  ( 2.141999999999999904, 0.000000000000000000, 2.703500000000000014 ) ) ;
#551 = CYLINDRICAL_SURFACE ( 'NONE', #481, 0.8000000000000000444 ) ;
#552 = ORIENTED_EDGE ( 'NONE', *, *, #458, .T. ) ;
#553 = ORIENTED_EDGE ( 'NONE', *, *, #1048, .F. ) ;
#554 = CARTESIAN_POINT ( 'NONE',  ( 2.325600000000000112, 0.000000000000000000, 1.424019298048544037E-16 ) ) ;
#555 = CARTESIAN_POINT ( 'NONE',  ( 1.529999999999999361, 1.338484535959076460, 2.370412857557136821 ) ) ;
#556 = ORIENTED_EDGE ( 'NONE', *, *, #756, .T. ) ;
#557 = CARTESIAN_POINT ( 'NONE',  ( 1.530000000000000027, -2.672992344653614794, 0.4238131979464523913 ) ) ;
#558 = CARTESIAN_POINT ( 'NONE',  ( 1.530000000000000249, 0.9709866724198876753, 2.515820524837938166 ) ) ;
#559 = AXIS2_PLACEMENT_3D ( 'NONE', #626, #951, #230 ) ;
#560 = B_SPLINE_CURVE_WITH_KNOTS ( 'NONE', 3,
 ( #258, #322, #1047, #1053, #969, #978, #717, #727, #476, #254, #479, #495, #805, #640, #637, #961, #241, #249 ),
 .UNSPECIFIED., .F., .F.,
 ( 4, 2, 2, 2, 2, 2, 2, 2, 4 ),
 ( 0.5000000000000000000, 0.5625000000000000000, 0.6249999999999998890, 0.6875000000000000000, 0.7500000000000000000, 0.8125000000000000000, 0.8750000000000000000, 0.9375000000000000000, 1.000000000000000000 ),
 .UNSPECIFIED. ) ;
#561 = EDGE_LOOP ( 'NONE', ( #866, #873 ) ) ;
#562 = EDGE_CURVE ( 'NONE', #750, #746, #603, .T. ) ;
#563 = CARTESIAN_POINT ( 'NONE',  ( 1.530000000000000027, -2.499382482679255002, -1.012509276673134062 ) ) ;
#564 = DIRECTION ( 'NONE',  ( -1.000000000000000000, 0.000000000000000000, -1.836970198721029934E-16 ) ) ;
#565 = ORIENTED_EDGE ( 'NONE', *, *, #278, .F. ) ;
#566 = CARTESIAN_POINT ( 'NONE',  ( 6.329999999978825898, 0.000000000000000000, 5.637851297006660647E-16 ) ) ;
#567 = CYLINDRICAL_SURFACE ( 'NONE', #52, 2.703500000000000014 ) ;
#568 = DIRECTION ( 'NONE',  ( -6.023345402697245486E-17, 0.000000000000000000, 1.000000000000000000 ) ) ;
#569 = ORIENTED_EDGE ( 'NONE', *, *, #1030, .F. ) ;
#570 = ADVANCED_FACE ( 'NONE', ( #546 ), #59, .T. ) ;
#571 = CARTESIAN_POINT ( 'NONE',  ( 2.141999999999999460, 2.634704570599157414, 0.7036646974392171128 ) ) ;
#572 = FACE_OUTER_BOUND ( 'NONE', #329, .T. ) ;
#573 = CARTESIAN_POINT ( 'NONE',  ( 0.000000000000000000, 0.000000000000000000, 0.000000000000000000 ) ) ;
#574 = CARTESIAN_POINT ( 'NONE',  ( 2.141999999999999460, -2.360583547534772286, 1.365451389053038200 ) ) ;
#575 = CIRCLE ( 'NONE', #480, 2.779999999999999805 ) ;
#576 = ORIENTED_EDGE ( 'NONE', *, *, #944, .T. ) ;
#577 = CIRCLE ( 'NONE', #15, 0.08339999999999953006 ) ;
#578 = AXIS2_PLACEMENT_3D ( 'NONE', #493, #84, #415 ) ;
#579 = CARTESIAN_POINT ( 'NONE',  ( 1.530000000000000693, -6.724424348996900175E-16, 2.745454588898083248 ) ) ;
#580 = CARTESIAN_POINT ( 'NONE',  ( 1.530000000000000027, 0.6739524311307071303, -2.633489044214983199 ) ) ;
#581 = DIRECTION ( 'NONE',  ( 1.000000000000000000, 0.000000000000000000, 6.123233995736759873E-17 ) ) ;
#582 = ORIENTED_EDGE ( 'NONE', *, *, #107, .T. ) ;
#583 = LINE ( 'NONE', #430, #146 ) ;
#584 = CARTESIAN_POINT ( 'NONE',  ( 2.402100000000000346, -2.360712061689483221, -1.365504621358636372 ) ) ;
#585 = DIRECTION ( 'NONE',  ( 1.000000000000000000, -0.000000000000000000, 6.023345402497293898E-17 ) ) ;
#586 = EDGE_LOOP ( 'NONE', ( #181, #761 ) ) ;
#587 = CARTESIAN_POINT ( 'NONE',  ( 2.402099999999999902, -2.360583547534772286, 1.365451389053038200 ) ) ;
#588 = DIRECTION ( 'NONE',  ( 6.023345402631982037E-17, 0.000000000000000000, -1.000000000000000000 ) ) ;
#589 = EDGE_LOOP ( 'NONE', ( #338, #216, #894, #189 ) ) ;
#590 = AXIS2_PLACEMENT_3D ( 'NONE', #387, #791, #705 ) ;
#591 = EDGE_CURVE ( 'NONE', #66, #1042, #967, .T. ) ;
#592 = VECTOR ( 'NONE', #453, 999.9999999999998863 ) ;
#593 = PLANE ( 'NONE',  #176 ) ;
#594 = AXIS2_PLACEMENT_3D ( 'NONE', #691, #3, #420 ) ;
#595 = CARTESIAN_POINT ( 'NONE',  ( 6.530000000068866051, 0.000000000000000000, 2.298508605835979375E-16 ) ) ;
#596 = DIRECTION ( 'NONE',  ( -1.000000000000000000, 0.000000000000000000, -6.123233995736769734E-17 ) ) ;
#597 = VERTEX_POINT ( 'NONE', #124 ) ;
#598 = CARTESIAN_POINT ( 'NONE',  ( 6.530000000068866051, 0.000000000000000000, 2.298508605835979375E-16 ) ) ;
#599 = CARTESIAN_POINT ( 'NONE',  ( 2.141999999999999904, 1.311596721886819899E-16, -2.741750000000000131 ) ) ;
#600 = DIRECTION ( 'NONE',  ( 1.000000000000000000, 0.000000000000000000, 1.836970198661850822E-16 ) ) ;
#601 = EDGE_CURVE ( 'NONE', #707, #862, #661, .T. ) ;
#602 = CARTESIAN_POINT ( 'NONE',  ( 2.402099999999999902, -1.365451389052220854, -2.360583547534774063 ) ) ;
#603 = LINE ( 'NONE', #299, #833 ) ;
#604 = VERTEX_POINT ( 'NONE', #942 ) ;
#605 = CARTESIAN_POINT ( 'NONE',  ( 2.325599999999999667, 2.362281500915735855, -1.361533913432726006 ) ) ;
#606 = CARTESIAN_POINT ( 'NONE',  ( 6.529999999955179213, 0.000000000000000000, -0.9999999999763531378 ) ) ;
#607 = CARTESIAN_POINT ( 'NONE',  ( 2.402099999999999902, 2.164868805340058877, 1.658359200059903449 ) ) ;
#608 = ADVANCED_FACE ( 'NONE', ( #450 ), #731, .T. ) ;
#609 = CARTESIAN_POINT ( 'NONE',  ( 5.684333754564507846E-11, 0.000000000000000000, -1.084202172451265868E-17 ) ) ;
#610 = CARTESIAN_POINT ( 'NONE',  ( -5.684360255782787641E-11, 0.000000000000000000, 2.318582358048655205E-42 ) ) ;
#611 = ORIENTED_EDGE ( 'NONE', *, *, #307, .F. ) ;
#612 = LINE ( 'NONE', #106, #938 ) ;
#613 = FACE_OUTER_BOUND ( 'NONE', #463, .T. ) ;
#614 = CLOSED_SHELL ( 'NONE', ( #797, #863, #501, #381, #730, #532, #190, #26, #97, #792, #215, #666, #748, #35, #473, #242, #996, #784, #608, #358, #570, #484, #653, #251, #48, #920, #753, #646, #543, #706, #431 ) ) ;
#615 = CIRCLE ( 'NONE', #161, 1.799999999946066964 ) ;
#616 = CARTESIAN_POINT ( 'NONE',  ( 2.402099999999999902, 2.634833084753754218, -0.7037179297453740601 ) ) ;
#617 = DIRECTION ( 'NONE',  ( 6.123233995736769734E-17, 0.000000000000000000, -1.000000000000000000 ) ) ;
#618 = CARTESIAN_POINT ( 'NONE',  ( 5.924350000000000449, 0.000000000000000000, 1.790647933543279981E-16 ) ) ;
#619 = CARTESIAN_POINT ( 'NONE',  ( 2.065499999999999670, -3.310832621494869645E-16, 2.703500000000000014 ) ) ;
#620 = CARTESIAN_POINT ( 'NONE',  ( 1.530000000000000693, 3.302382558580752520E-16, -2.696600000000000108 ) ) ;
#621 = DIRECTION ( 'NONE',  ( -1.000000000000000000, 0.000000000000000000, -6.123233995736769734E-17 ) ) ;
#622 = ORIENTED_EDGE ( 'NONE', *, *, #807, .T. ) ;
#623 = EDGE_CURVE ( 'NONE', #451, #34, #904, .T. ) ;
#624 = CARTESIAN_POINT ( 'NONE',  ( 2.402100000000000346, 2.360583547534773619, -1.365451389052665832 ) ) ;
#625 = CARTESIAN_POINT ( 'NONE',  ( 1.613400000000000389, 3.404518101629641280E-16, -2.779999999999999361 ) ) ;
#626 = CARTESIAN_POINT ( 'NONE',  ( 0.1799999999434473974, 0.000000000000000000, 1.102182118886333396E-17 ) ) ;
#627 = VERTEX_POINT ( 'NONE', #332 ) ;
#628 = CIRCLE ( 'NONE', #745, 2.779999999972915248 ) ;
#629 = DIRECTION ( 'NONE',  ( -1.000000000000000000, 0.000000000000000000, -1.836970198721029934E-16 ) ) ;
#630 = CIRCLE ( 'NONE', #526, 0.9999999999763531378 ) ;
#631 = CARTESIAN_POINT ( 'NONE',  ( 2.233800000000000008, 0.000000000000000000, 1.367808009967680119E-16 ) ) ;
#632 = EDGE_LOOP ( 'NONE', ( #423, #986 ) ) ;
#633 = EDGE_LOOP ( 'NONE', ( #508, #418, #582, #553 ) ) ;
#634 =( NAMED_UNIT ( * ) PLANE_ANGLE_UNIT ( ) SI_UNIT ( $, .RADIAN. ) );
#635 = EDGE_CURVE ( 'NONE', #812, #647, #344, .T. ) ;
#636 = CARTESIAN_POINT ( 'NONE',  ( 1.530000000000000249, -2.696633687470283647, 0.1712786706976488493 ) ) ;
#637 = CARTESIAN_POINT ( 'NONE',  ( 2.065500000000000114, 1.361533913432726450, 2.362281500915737187 ) ) ;
#638 = ORIENTED_EDGE ( 'NONE', *, *, #42, .T. ) ;
#639 = CARTESIAN_POINT ( 'NONE',  ( 4.959819536546779984E-17, 0.000000000000000000, -0.8100000000000000533 ) ) ;
#640 = CARTESIAN_POINT ( 'NONE',  ( 2.065500000000000558, 1.661427057452183220, 2.161899308423480992 ) ) ;
#641 = EDGE_CURVE ( 'NONE', #439, #627, #630, .T. ) ;
#642 = ORIENTED_EDGE ( 'NONE', *, *, #42, .F. ) ;
#643 = CARTESIAN_POINT ( 'NONE',  ( 1.529999999999999805, -1.078409224164232905, 2.471726841582116752 ) ) ;
#644 = CARTESIAN_POINT ( 'NONE',  ( 2.402099999999999902, 0.000000000000000000, 1.470862038115927143E-16 ) ) ;
#645 = AXIS2_PLACEMENT_3D ( 'NONE', #744, #581, #341 ) ;
#646 = ADVANCED_FACE ( 'NONE', ( #875 ), #720, .T. ) ;
#647 = VERTEX_POINT ( 'NONE', #958 ) ;
#648 =( GEOMETRIC_REPRESENTATION_CONTEXT ( 3 ) GLOBAL_UNCERTAINTY_ASSIGNED_CONTEXT ( ( #24 ) ) GLOBAL_UNIT_ASSIGNED_CONTEXT ( ( #1025, #634, #313 ) ) REPRESENTATION_CONTEXT ( 'NONE', 'WORKASPACE' ) );
#649 = DIRECTION ( 'NONE',  ( -1.000000000000000000, 0.000000000000000000, -6.123233995736769734E-17 ) ) ;
#650 = CARTESIAN_POINT ( 'NONE',  ( -5.684360255782787641E-11, 0.000000000000000000, 2.318582358048655205E-42 ) ) ;
#651 = FACE_OUTER_BOUND ( 'NONE', #491, .T. ) ;
#652 = EDGE_LOOP ( 'NONE', ( #787, #676, #378, #225 ) ) ;
#653 = ADVANCED_FACE ( 'NONE', ( #163, #1043 ), #804, .T. ) ;
#654 = CARTESIAN_POINT ( 'NONE',  ( 1.529999999999999583, 0.8523894024667282299, 2.559037838562346678 ) ) ;
#655 = ORIENTED_EDGE ( 'NONE', *, *, #72, .F. ) ;
#656 = CARTESIAN_POINT ( 'NONE',  ( 1.530000000000000693, -5.490909177796164720, -2.745454588898083692 ) ) ;
#657 = CARTESIAN_POINT ( 'NONE',  ( 5.924350000000000449, 0.000000000000000000, 1.790647933543279981E-16 ) ) ;
#658 = CARTESIAN_POINT ( 'NONE',  ( 2.065500000000000114, -2.633135131372790649, -0.7076354053653154397 ) ) ;
#659 = AXIS2_PLACEMENT_3D ( 'NONE', #618, #220, #39 ) ;
#660 = ORIENTED_EDGE ( 'NONE', *, *, #523, .F. ) ;
#661 = CIRCLE ( 'NONE', #33, 2.779999999999999805 ) ;
#662 = PRODUCT_DEFINITION_FORMATION_WITH_SPECIFIED_SOURCE ( 'ANY', '', #703, .NOT_KNOWN. ) ;
#663 = APPLICATION_CONTEXT ( 'automotive_design' ) ;
#664 = DIRECTION ( 'NONE',  ( -0.7071067811865492381, 8.659560562354910671E-17, -0.7071067811865457964 ) ) ;
#665 = SURFACE_STYLE_FILL_AREA ( #364 ) ;
#666 = ADVANCED_FACE ( 'NONE', ( #809 ), #551, .F. ) ;
#667 = CARTESIAN_POINT ( 'NONE',  ( 1.530000000000000471, 2.356171455687541602E-16, -2.696600000000000108 ) ) ;
#668 = ORIENTED_EDGE ( 'NONE', *, *, #956, .T. ) ;
#669 = CARTESIAN_POINT ( 'NONE',  ( 2.402100000000000346, -2.703569551359436218, -0.3581563766297987672 ) ) ;
#670 = CARTESIAN_POINT ( 'NONE',  ( 2.065500000000000114, -0.3538873224575009302, 2.703500000000000458 ) ) ;
#671 = ORIENTED_EDGE ( 'NONE', *, *, #685, .T. ) ;
#672 = EDGE_CURVE ( 'NONE', #500, #531, #615, .T. ) ;
#673 = CARTESIAN_POINT ( 'NONE',  ( 1.613399999999999945, 0.000000000000000000, 2.779999999999999361 ) ) ;
#674 = CARTESIAN_POINT ( 'NONE',  ( 1.530000000000000249, 2.559063630531726918, -0.8523242168144553599 ) ) ;
#675 = CARTESIAN_POINT ( 'NONE',  ( 2.141999999999999460, -2.634833084753755106, 0.7037179297450049109 ) ) ;
#676 = ORIENTED_EDGE ( 'NONE', *, *, #829, .T. ) ;
#677 = AXIS2_PLACEMENT_3D ( 'NONE', #639, #73, #405 ) ;
#678 = LINE ( 'NONE', #191, #16 ) ;
#679 = CYLINDRICAL_SURFACE ( 'NONE', #102, 2.779999999999999805 ) ;
#680 = CARTESIAN_POINT ( 'NONE',  ( 2.325600000000000112, 3.310832621494869645E-16, -2.703500000000000014 ) ) ;
#681 = DIRECTION ( 'NONE',  ( -1.000000000000000000, -0.000000000000000000, -1.560003125861724424E-16 ) ) ;
#682 = CARTESIAN_POINT ( 'NONE',  ( 2.141999999999999904, 3.310832621494869645E-16, -2.703500000000000014 ) ) ;
#683 = ORIENTED_EDGE ( 'NONE', *, *, #971, .T. ) ;
#684 = LINE ( 'NONE', #606, #592 ) ;
#685 = EDGE_CURVE ( 'NONE', #1001, #627, #715, .T. ) ;
#686 = CARTESIAN_POINT ( 'NONE',  ( 2.325600000000000112, -1.661427057452183220, 2.161899308423480104 ) ) ;
#687 = CARTESIAN_POINT ( 'NONE',  ( 2.402099999999999902, 0.7036646974393143683, -2.634704570599061935 ) ) ;
#688 = CARTESIAN_POINT ( 'NONE',  ( 1.529999999999999805, -1.338484535958386790, -2.370412857557901098 ) ) ;
#689 = CARTESIAN_POINT ( 'NONE',  ( 6.530000000012022632, 0.000000000000000000, 6.505213035159540707E-16 ) ) ;
#690 = DIRECTION ( 'NONE',  ( 1.000000000000000000, 0.000000000000000000, 1.560003125861724424E-16 ) ) ;
#691 = CARTESIAN_POINT ( 'NONE',  ( 6.529999999955179213, 0.000000000000000000, 6.505213034913024632E-16 ) ) ;
#692 = LINE ( 'NONE', #1016, #68 ) ;
#693 = DIRECTION ( 'NONE',  ( -1.836970198661850822E-16, 0.000000000000000000, 1.000000000000000000 ) ) ;
#694 = CARTESIAN_POINT ( 'NONE',  ( 1.529999999999999805, 0.000000000000000000, 1.800000000000000266 ) ) ;
#695 = CARTESIAN_POINT ( 'NONE',  ( 2.233800000000000008, 3.404518101629641773E-16, -2.779999999999999805 ) ) ;
#696 = ORIENTED_EDGE ( 'NONE', *, *, #944, .F. ) ;
#697 = AXIS2_PLACEMENT_3D ( 'NONE', #507, #585, #836 ) ;
#698 = DIRECTION ( 'NONE',  ( -1.000000000000000000, 0.000000000000000000, -6.123233995736769734E-17 ) ) ;
#699 = CIRCLE ( 'NONE', #834, 0.8000000000000000444 ) ;
#700 = CARTESIAN_POINT ( 'NONE',  ( 1.530000000000000693, 5.393199999999999328, -2.696599999999999220 ) ) ;
#701 = DIRECTION ( 'NONE',  ( 0.000000000000000000, 0.000000000000000000, 1.000000000000000000 ) ) ;
#702 = DIRECTION ( 'NONE',  ( 0.000000000000000000, 0.000000000000000000, 1.000000000000000000 ) ) ;
#703 = PRODUCT ( 'SMTSO-M2-5ET', 'SMTSO-M2-5ET', '', ( #901 ) ) ;
#704 = CARTESIAN_POINT ( 'NONE',  ( 1.613399999999999723, 5.559999999999997833, 2.779999999999999361 ) ) ;
#705 = DIRECTION ( 'NONE',  ( 6.123233995736769734E-17, 0.000000000000000000, -1.000000000000000000 ) ) ;
#706 = ADVANCED_FACE ( 'NONE', ( #973 ), #567, .T. ) ;
#707 = VERTEX_POINT ( 'NONE', #535 ) ;
#708 = CARTESIAN_POINT ( 'NONE',  ( 2.065500000000000114, 0.000000000000000000, 1.264753981819429891E-16 ) ) ;
#709 = CARTESIAN_POINT ( 'NONE',  ( 1.564545411101916361, 3.404518101629641280E-16, -2.779999999999999805 ) ) ;
#710 = DIRECTION ( 'NONE',  ( 1.000000000000000000, -0.000000000000000000, 6.123233995736769734E-17 ) ) ;
#711 = ORIENTED_EDGE ( 'NONE', *, *, #719, .F. ) ;
#712 = CARTESIAN_POINT ( 'NONE',  ( 2.103749999999999787, 0.000000000000000000, 2.703500000000000014 ) ) ;
#713 = VECTOR ( 'NONE', #138, 1000.000000000000114 ) ;
#714 = LINE ( 'NONE', #957, #83 ) ;
#715 = LINE ( 'NONE', #166, #1037 ) ;
#716 = AXIS2_PLACEMENT_3D ( 'NONE', #758, #600, #43 ) ;
#717 = CARTESIAN_POINT ( 'NONE',  ( 2.065499999999999670, 2.362281500915735855, -1.361533913432726006 ) ) ;
#718 = ORIENTED_EDGE ( 'NONE', *, *, #227, .T. ) ;
#719 = EDGE_CURVE ( 'NONE', #277, #51, #684, .T. ) ;
#720 = CYLINDRICAL_SURFACE ( 'NONE', #362, 2.779999999999999805 ) ;
#721 = CARTESIAN_POINT ( 'NONE',  ( 0.8549999999999999822, 0.000000000000000000, 5.235365066354940008E-17 ) ) ;
#722 = ORIENTED_EDGE ( 'NONE', *, *, #410, .F. ) ;
#723 = CARTESIAN_POINT ( 'NONE',  ( 1.530000000000000027, -2.603949998495504126, 0.7107657251741391624 ) ) ;
#724 = CARTESIAN_POINT ( 'NONE',  ( 1.529999999999999805, 2.672992344653492225, -0.4238131979474868416 ) ) ;
#725 = ORIENTED_EDGE ( 'NONE', *, *, #424, .F. ) ;
#726 = DIRECTION ( 'NONE',  ( -1.000000000000000000, 0.000000000000000000, -6.123233995736769734E-17 ) ) ;
#727 = CARTESIAN_POINT ( 'NONE',  ( 2.065500000000001002, 2.633135131372791538, -0.7076354053653136633 ) ) ;
#728 = AXIS2_PLACEMENT_3D ( 'NONE', #982, #897, #844 ) ;
#729 = ORIENTED_EDGE ( 'NONE', *, *, #56, .F. ) ;
#730 = ADVANCED_FACE ( 'NONE', ( #613 ), #145, .F. ) ;
#731 =( BOUNDED_SURFACE ( )  B_SPLINE_SURFACE ( 3, 3, ( 
 ( #131, #537, #700, #620 ),
 ( #471, #224, #539, #465 ),
 ( #391, #785, #54, #709 ),
 ( #386, #704, #1027, #625 ) ),
 .UNSPECIFIED., .F., .F., .F. ) 
 B_SPLINE_SURFACE_WITH_KNOTS ( ( 4, 4 ),
 ( 4, 4 ),
 ( 0.000000000000000000, 1.000000000000000000 ),
 ( 0.000000000000000000, 1.000000000000000000 ),
 .UNSPECIFIED. ) 
 GEOMETRIC_REPRESENTATION_ITEM ( )  RATIONAL_B_SPLINE_SURFACE ( (
 ( 1.000000000000000000, 0.3333333333333334259, 0.3333333333333334259, 1.000000000000000000),
 ( 0.8047378541243649375, 0.2682459513747884050, 0.2682459513747884050, 0.8047378541243649375),
 ( 0.8047378541243649375, 0.2682459513747884050, 0.2682459513747884050, 0.8047378541243649375),
 ( 1.000000000000000000, 0.3333333333333334259, 0.3333333333333334259, 1.000000000000000000) ) ) 
 REPRESENTATION_ITEM ( '' )  SURFACE ( )  );
#732 = CARTESIAN_POINT ( 'NONE',  ( 2.325600000000000112, 3.404518101629641773E-16, -2.779999999999999805 ) ) ;
#733 = CARTESIAN_POINT ( 'NONE',  ( 2.142000000000000348, 1.658359200059797756, -2.164868805340164126 ) ) ;
#734 = CARTESIAN_POINT ( 'NONE',  ( 1.530000000000000027, -1.320909397486968177E-16, 2.696600000000000552 ) ) ;
#735 = VERTEX_POINT ( 'NONE', #114 ) ;
#736 = B_SPLINE_CURVE_WITH_KNOTS ( 'NONE', 3,
 ( #734, #87, #403, #802, #654, #887, #963, #558, #555, #164, #417, #245, #4, #70, #65, #157, #398, #1041, #74, #406, #724, #821, #674, #274, #835, #442, #906, #743, #989, #515, #992, #109, #19, #830, #752, #580, #183, #436 ),
 .UNSPECIFIED., .F., .F.,
 ( 4, 1, 1, 1, 2, 2, 2, 1, 1, 1, 2, 2, 2, 1, 1, 1, 2, 2, 2, 1, 1, 1, 2, 2, 4 ),
 ( 0.000000000000000000, 0.06250000000000012490, 0.09375000000000016653, 0.1093750000000001804, 0.1171875000000001527, 0.1250000000000001110, 0.2499999999999997780, 0.3124999999999996114, 0.3437499999999996114, 0.3593749999999996669, 0.3671874999999996114, 0.3749999999999995559, 0.5000000000000000000, 0.5625000000000002220, 0.5937500000000003331, 0.6093750000000003331, 0.6171875000000003331, 0.6250000000000003331, 0.7500000000000004441, 0.8125000000000005551, 0.8437500000000005551, 0.8593750000000005551, 0.8671875000000006661, 0.8750000000000006661, 1.000000000000000000 ),
 .UNSPECIFIED. ) ;
#737 = CARTESIAN_POINT ( 'NONE',  ( 1.613399999999999945, -6.809036203259281574E-16, 2.779999999999999361 ) ) ;
#738 = CARTESIAN_POINT ( 'NONE',  ( 2.142000000000000348, 2.360583547534773619, -1.365451389052665832 ) ) ;
#739 = CARTESIAN_POINT ( 'NONE',  ( 2.402099999999999902, 3.310832621494869645E-16, -2.703500000000000014 ) ) ;
#740 = CARTESIAN_POINT ( 'NONE',  ( 2.141999999999999904, -2.164868805339723146, -1.658359200060165017 ) ) ;
#741 = ORIENTED_EDGE ( 'NONE', *, *, #127, .F. ) ;
#742 = CARTESIAN_POINT ( 'NONE',  ( 2.402099999999999902, 0.000000000000000000, 2.779999999999999805 ) ) ;
#743 = CARTESIAN_POINT ( 'NONE',  ( 1.529999999999999805, 2.169755167740461843, -1.643708079464713645 ) ) ;
#744 = CARTESIAN_POINT ( 'NONE',  ( 6.446600000017951970, 0.000000000000000000, 2.110433828981630033E-16 ) ) ;
#745 = AXIS2_PLACEMENT_3D ( 'NONE', #337, #884, #490 ) ;
#746 = VERTEX_POINT ( 'NONE', #291 ) ;
#747 = CONICAL_SURFACE ( 'NONE', #247, 1.800000000059753802, 0.7853981633974482790 ) ;
#748 = ADVANCED_FACE ( 'NONE', ( #440 ), #1015, .F. ) ;
#749 = CARTESIAN_POINT ( 'NONE',  ( 2.065500000000000114, -1.661427057452183220, 2.161899308423480104 ) ) ;
#750 = VERTEX_POINT ( 'NONE', #446 ) ;
#751 = CARTESIAN_POINT ( 'NONE',  ( 2.325600000000000112, -2.633135131372790649, 0.7076354053653149956 ) ) ;
#752 = CARTESIAN_POINT ( 'NONE',  ( 1.530000000000000027, 1.012519928971662653, -2.499378263171821324 ) ) ;
#753 = ADVANCED_FACE ( 'NONE', ( #931, #977 ), #296, .T. ) ;
#754 = CARTESIAN_POINT ( 'NONE',  ( 2.142000000000000348, -0.7037179297458193705, -2.634833084753754218 ) ) ;
#755 = EDGE_LOOP ( 'NONE', ( #153, #334, #104, #5 ) ) ;
#756 = EDGE_CURVE ( 'NONE', #735, #1001, #1002, .T. ) ;
#757 = CARTESIAN_POINT ( 'NONE',  ( 1.530000000000000249, -5.393199999999999328, 2.696599999999998776 ) ) ;
#758 = CARTESIAN_POINT ( 'NONE',  ( 0.1999999998669982626, 0.000000000000000000, 3.673940395924699722E-17 ) ) ;
#759 = FILL_AREA_STYLE_COLOUR ( '', #780 ) ;
#760 = CARTESIAN_POINT ( 'NONE',  ( 2.142000000000000348, -2.703569551359436218, -0.3581563766297986007 ) ) ;
#761 = ORIENTED_EDGE ( 'NONE', *, *, #272, .T. ) ;
#762 = EDGE_CURVE ( 'NONE', #775, #411, #1004, .T. ) ;
#763 = CIRCLE ( 'NONE', #175, 1.800000000000000266 ) ;
#764 = CONICAL_SURFACE ( 'NONE', #594, 0.9999999999763538039, 0.7853981633974485010 ) ;
#765 = FACE_OUTER_BOUND ( 'NONE', #1028, .T. ) ;
#766 = CARTESIAN_POINT ( 'NONE',  ( 2.402099999999999902, 3.310832621494869645E-16, -2.703500000000000014 ) ) ;
#767 = DIRECTION ( 'NONE',  ( -1.000000000000000000, 0.000000000000000000, -6.023345402497293898E-17 ) ) ;
#768 = CARTESIAN_POINT ( 'NONE',  ( 1.530000000000000027, -1.320909397486968177E-16, 2.696600000000000552 ) ) ;
#769 = CARTESIAN_POINT ( 'NONE',  ( 2.325600000000000112, 2.703499999999999570, 0.3538873224575005416 ) ) ;
#770 = DIRECTION ( 'NONE',  ( -6.123233995736769734E-17, 0.000000000000000000, 1.000000000000000000 ) ) ;
#771 = CARTESIAN_POINT ( 'NONE',  ( 2.325600000000000112, -1.661427057452182554, -2.161899308423480992 ) ) ;
#772 = CARTESIAN_POINT ( 'NONE',  ( 2.402099999999999902, 3.404518101629641773E-16, -2.779999999999999805 ) ) ;
#773 = CARTESIAN_POINT ( 'NONE',  ( 0.1800000000571343461, 0.000000000000000000, -1.450067659507090630E-48 ) ) ;
#774 = EDGE_LOOP ( 'NONE', ( #876, #139, #979, #96 ) ) ;
#775 = VERTEX_POINT ( 'NONE', #129 ) ;
#776 = CARTESIAN_POINT ( 'NONE',  ( 2.402099999999999458, 2.703569551359435774, 0.3581563766298858087 ) ) ;
#777 = DIRECTION ( 'NONE',  ( 0.000000000000000000, 0.000000000000000000, 1.000000000000000000 ) ) ;
#778 = DIRECTION ( 'NONE',  ( 1.000000000000000000, -0.000000000000000000, 6.123233995736769734E-17 ) ) ;
#779 = VERTEX_POINT ( 'NONE', #1011 ) ;
#780 = COLOUR_RGB ( '',0.8431372549019607865, 0.8156862745098039102, 0.7529411764705882248 ) ;
#781 = AXIS2_PLACEMENT_3D ( 'NONE', #455, #293, #38 ) ;
#782 = CARTESIAN_POINT ( 'NONE',  ( 1.530000000000000027, 9.368548013477249779E-17, -2.248299999999999965 ) ) ;
#783 = VECTOR ( 'NONE', #649, 1000.000000000000000 ) ;
#784 = ADVANCED_FACE ( 'NONE', ( #765 ), #679, .T. ) ;
#785 = CARTESIAN_POINT ( 'NONE',  ( 1.564545411101916361, 5.559999999999997833, 2.779999999999999361 ) ) ;
#786 = FACE_OUTER_BOUND ( 'NONE', #401, .T. ) ;
#787 = ORIENTED_EDGE ( 'NONE', *, *, #160, .F. ) ;
#788 = DIRECTION ( 'NONE',  ( -1.000000000000000000, 0.000000000000000000, -6.123233995736769734E-17 ) ) ;
#789 = CYLINDRICAL_SURFACE ( 'NONE', #509, 2.703500000000000014 ) ;
#790 = FACE_BOUND ( 'NONE', #168, .T. ) ;
#791 = DIRECTION ( 'NONE',  ( 1.000000000000000000, 0.000000000000000000, 6.123233995736769734E-17 ) ) ;
#792 = ADVANCED_FACE ( 'NONE', ( #135 ), #764, .F. ) ;
#793 = CARTESIAN_POINT ( 'NONE',  ( 0.1999999998669981238, 0.000000000000000000, 0.8000000000000000444 ) ) ;
#794 = DIRECTION ( 'NONE',  ( 0.000000000000000000, 0.000000000000000000, 1.000000000000000000 ) ) ;
#795 = DIRECTION ( 'NONE',  ( -1.836970198661850822E-16, 0.000000000000000000, 1.000000000000000000 ) ) ;
#796 = DIRECTION ( 'NONE',  ( -1.000000000000000000, 0.000000000000000000, -6.123233995736769734E-17 ) ) ;
#797 = ADVANCED_FACE ( 'NONE', ( #336 ), #110, .T. ) ;
#798 = CIRCLE ( 'NONE', #67, 2.779999999999999805 ) ;
#799 = CIRCLE ( 'NONE', #400, 2.779999999999999805 ) ;
#800 = DIRECTION ( 'NONE',  ( 0.000000000000000000, 0.000000000000000000, 1.000000000000000000 ) ) ;
#801 = AXIS2_PLACEMENT_3D ( 'NONE', #598, #690, #354 ) ;
#802 = CARTESIAN_POINT ( 'NONE',  ( 1.530000000000000027, 0.7108774720073838260, 2.603905783690755538 ) ) ;
#803 = VERTEX_POINT ( 'NONE', #742 ) ;
#804 = PLANE ( 'NONE',  #677 ) ;
#805 = CARTESIAN_POINT ( 'NONE',  ( 2.065500000000000114, 2.161899308423480548, 1.661427057452182554 ) ) ;
#806 = ORIENTED_EDGE ( 'NONE', *, *, #981, .T. ) ;
#807 = EDGE_CURVE ( 'NONE', #779, #803, #808, .T. ) ;
#808 = LINE ( 'NONE', #1051, #783 ) ;
#809 = FACE_OUTER_BOUND ( 'NONE', #774, .T. ) ;
#810 = CARTESIAN_POINT ( 'NONE',  ( 4.765000000000000568, 9.797174393178826150E-17, -0.7999999999999997113 ) ) ;
#811 = DIRECTION ( 'NONE',  ( -1.034525261147459999E-16, 0.000000000000000000, -1.000000000000000000 ) ) ;
#812 = VERTEX_POINT ( 'NONE', #732 ) ;
#813 = CIRCLE ( 'NONE', #212, 2.779999999999999805 ) ;
#814 = CARTESIAN_POINT ( 'NONE',  ( 1.613400000000000389, -5.559999999999997833, -2.780000000000000249 ) ) ;
#815 = CARTESIAN_POINT ( 'NONE',  ( 1.529999999999999583, -2.169755167740647916, 1.643708079464526017 ) ) ;
#816 = DIRECTION ( 'NONE',  ( 0.000000000000000000, 0.000000000000000000, 1.000000000000000000 ) ) ;
#817 = AXIS2_PLACEMENT_3D ( 'NONE', #644, #409, #816 ) ;
#818 = CONICAL_SURFACE ( 'NONE', #697, 1.800000000059753802, 0.7853981633974482790 ) ;
#819 = EDGE_LOOP ( 'NONE', ( #496, #202, #302, #552 ) ) ;
#820 = CARTESIAN_POINT ( 'NONE',  ( 2.141999999999999904, 2.164868805340058877, 1.658359200059903449 ) ) ;
#821 = CARTESIAN_POINT ( 'NONE',  ( 1.530000000000000249, 2.603949998495410867, -0.7107657251749149863 ) ) ;
#822 = CARTESIAN_POINT ( 'NONE',  ( 2.402099999999999902, 1.470862038115930101E-16, -2.741750000000000131 ) ) ;
#823 = EDGE_LOOP ( 'NONE', ( #1021, #133 ) ) ;
#824 = EDGE_CURVE ( 'NONE', #541, #970, #13, .T. ) ;
#825 = CARTESIAN_POINT ( 'NONE',  ( 2.141999999999999904, 0.3586882289656074252, 2.703500000000000458 ) ) ;
#826 = CARTESIAN_POINT ( 'NONE',  ( 2.402100000000000346, -0.7037179297458193705, -2.634833084753754218 ) ) ;
#827 = CARTESIAN_POINT ( 'NONE',  ( 2.065500000000000114, -2.362281500915736299, 1.361533913432727561 ) ) ;
#828 = ORIENTED_EDGE ( 'NONE', *, *, #89, .F. ) ;
#829 = EDGE_CURVE ( 'NONE', #277, #513, #699, .T. ) ;
#830 = CARTESIAN_POINT ( 'NONE',  ( 1.530000000000000249, 1.035751370874187227, -2.489865630108727856 ) ) ;
#831 = CARTESIAN_POINT ( 'NONE',  ( 2.142000000000000348, -2.360712061689483221, -1.365504621358636372 ) ) ;
#832 = EDGE_LOOP ( 'NONE', ( #722, #917, #506, #384 ) ) ;
#833 = VECTOR ( 'NONE', #213, 1000.000000000000000 ) ;
#834 = AXIS2_PLACEMENT_3D ( 'NONE', #566, #170, #972 ) ;
#835 = CARTESIAN_POINT ( 'NONE',  ( 1.530000000000000249, 2.522806503104359610, -0.9526611840912471152 ) ) ;
#836 = DIRECTION ( 'NONE',  ( 6.023345402497292666E-17, 0.000000000000000000, -1.000000000000000000 ) ) ;
#837 = ORIENTED_EDGE ( 'NONE', *, *, #458, .F. ) ;
#838 = CARTESIAN_POINT ( 'NONE',  ( 2.325600000000000112, -0.3538873224574998200, -2.703500000000000014 ) ) ;
#839 = CARTESIAN_POINT ( 'NONE',  ( 2.325600000000000112, 0.000000000000000000, 1.424019298048544037E-16 ) ) ;
#840 = EDGE_CURVE ( 'NONE', #775, #881, #583, .T. ) ;
#841 = CARTESIAN_POINT ( 'NONE',  ( 2.065500000000000114, -2.703500000000000014, 0.3538873224574999310 ) ) ;
#842 = ORIENTED_EDGE ( 'NONE', *, *, #272, .F. ) ;
#843 = CARTESIAN_POINT ( 'NONE',  ( 6.446600000017951970, 3.404518101613057945E-16, -2.779999999972915248 ) ) ;
#844 = DIRECTION ( 'NONE',  ( -1.836970198661850822E-16, 0.000000000000000000, 1.000000000000000000 ) ) ;
#845 = CARTESIAN_POINT ( 'NONE',  ( 2.325600000000000112, 3.310832621494869645E-16, -2.703500000000000014 ) ) ;
#846 = CARTESIAN_POINT ( 'NONE',  ( 6.329999999978825898, 0.000000000000000000, 0.8000000000000005995 ) ) ;
#847 = ORIENTED_EDGE ( 'NONE', *, *, #265, .F. ) ;
#848 = CIRCLE ( 'NONE', #984, 1.620000000059462764 ) ;
#849 = VECTOR ( 'NONE', #664, 1000.000000000000000 ) ;
#850 = CARTESIAN_POINT ( 'NONE',  ( 2.325600000000000112, 2.633135131372791982, 0.7076354053653143295 ) ) ;
#851 = CARTESIAN_POINT ( 'NONE',  ( 2.141999999999999904, 2.164967165815866679, -1.658457560535497866 ) ) ;
#852 = CARTESIAN_POINT ( 'NONE',  ( 2.402099999999999902, 0.000000000000000000, 2.703500000000000014 ) ) ;
#853 = DIRECTION ( 'NONE',  ( 1.000000000000000000, -0.000000000000000000, 6.123233995736769734E-17 ) ) ;
#854 = CARTESIAN_POINT ( 'NONE',  ( 6.446599999961107663, 0.000000000000000000, 2.780000000029758667 ) ) ;
#855 = ORIENTED_EDGE ( 'NONE', *, *, #591, .F. ) ;
#856 = CARTESIAN_POINT ( 'NONE',  ( 2.325599999999999667, -3.310832621494869645E-16, 2.703500000000000014 ) ) ;
#857 = CARTESIAN_POINT ( 'NONE',  ( 2.141999999999999904, 0.3581563766297500284, -2.703569551359435774 ) ) ;
#858 = CARTESIAN_POINT ( 'NONE',  ( 2.325599999999999667, -3.310832621494869645E-16, 2.703500000000000014 ) ) ;
#859 = DIRECTION ( 'NONE',  ( 1.000000000000000000, -0.000000000000000000, 6.123233995736769734E-17 ) ) ;
#860 = DIRECTION ( 'NONE',  ( 6.023345402497292666E-17, 0.000000000000000000, -1.000000000000000000 ) ) ;
#861 = LINE ( 'NONE', #854, #713 ) ;
#862 = VERTEX_POINT ( 'NONE', #890 ) ;
#863 = ADVANCED_FACE ( 'NONE', ( #988 ), #268, .T. ) ;
#864 = CARTESIAN_POINT ( 'NONE',  ( 2.402100000000000346, 1.658359200059797756, -2.164868805340164126 ) ) ;
#865 = DIRECTION ( 'NONE',  ( -1.000000000000000000, 0.000000000000000000, -6.123233995736769734E-17 ) ) ;
#866 = ORIENTED_EDGE ( 'NONE', *, *, #79, .T. ) ;
#867 = EDGE_LOOP ( 'NONE', ( #55, #522, #1024, #259 ) ) ;
#868 = AXIS2_PLACEMENT_3D ( 'NONE', #78, #325, #167 ) ;
#869 = AXIS2_PLACEMENT_3D ( 'NONE', #599, #524, #770 ) ;
#870 = DIRECTION ( 'NONE',  ( -7.800015629392120580E-17, 0.000000000000000000, 1.000000000000000000 ) ) ;
#871 = CARTESIAN_POINT ( 'NONE',  ( 1.530000000000000027, -0.4239621937231122240, -2.672933391580618157 ) ) ;
#872 = VERTEX_POINT ( 'NONE', #256 ) ;
#873 = ORIENTED_EDGE ( 'NONE', *, *, #641, .T. ) ;
#874 = CARTESIAN_POINT ( 'NONE',  ( 2.325599999999999667, -3.310832621494869645E-16, 2.703500000000000014 ) ) ;
#875 = FACE_OUTER_BOUND ( 'NONE', #885, .T. ) ;
#876 = ORIENTED_EDGE ( 'NONE', *, *, #1018, .T. ) ;
#877 = EDGE_CURVE ( 'NONE', #404, #294, #929, .T. ) ;
#878 = EDGE_LOOP ( 'NONE', ( #569, #611 ) ) ;
#879 = DIRECTION ( 'NONE',  ( 1.000000000000000000, -0.000000000000000000, 6.123233995736769734E-17 ) ) ;
#880 = CARTESIAN_POINT ( 'NONE',  ( 6.530000000012022632, 0.000000000000000000, 6.505213035159540707E-16 ) ) ;
#881 = VERTEX_POINT ( 'NONE', #375 ) ;
#882 = PRESENTATION_LAYER_ASSIGNMENT (  '', '', ( #174 ) ) ;
#883 = DIRECTION ( 'NONE',  ( -1.000000000000000000, 0.000000000000000000, -6.123233995736769734E-17 ) ) ;
#884 = DIRECTION ( 'NONE',  ( 1.000000000000000000, 0.000000000000000000, 6.123233995736759873E-17 ) ) ;
#885 = EDGE_LOOP ( 'NONE', ( #936, #924, #186, #434 ) ) ;
#886 = DIRECTION ( 'NONE',  ( -1.000000000000000000, -0.000000000000000000, -6.123233995736769734E-17 ) ) ;
#887 = CARTESIAN_POINT ( 'NONE',  ( 1.530000000000000249, 0.9126204350888138528, 2.537589974682282534 ) ) ;
#888 = EDGE_LOOP ( 'NONE', ( #725, #576, #468, #132 ) ) ;
#889 = EDGE_CURVE ( 'NONE', #1001, #735, #483, .T. ) ;
#890 = CARTESIAN_POINT ( 'NONE',  ( 2.141999999999999904, 3.404518101629641773E-16, -2.779999999999999805 ) ) ;
#891 = CARTESIAN_POINT ( 'NONE',  ( 1.529999999999999805, -2.038322179489063579, -1.775298635351243215 ) ) ;
#892 = LINE ( 'NONE', #810, #192 ) ;
#893 = CARTESIAN_POINT ( 'NONE',  ( 1.530000000000000027, 0.000000000000000000, 9.368548013477262105E-17 ) ) ;
#894 = ORIENTED_EDGE ( 'NONE', *, *, #278, .T. ) ;
#895 = DIRECTION ( 'NONE',  ( 0.000000000000000000, 0.000000000000000000, 1.000000000000000000 ) ) ;
#896 = CIRCLE ( 'NONE', #817, 2.779999999999999805 ) ;
#897 = DIRECTION ( 'NONE',  ( -1.000000000000000000, -0.000000000000000000, -1.836970198661850822E-16 ) ) ;
#898 = DIRECTION ( 'NONE',  ( 8.673617379596101242E-16, 0.000000000000000000, -1.000000000000000000 ) ) ;
#899 = CIRCLE ( 'NONE', #428, 0.08339999999999953006 ) ;
#900 = EDGE_CURVE ( 'NONE', #57, #294, #692, .T. ) ;
#901 = PRODUCT_CONTEXT ( 'NONE', #987, 'mechanical' ) ;
#902 = DIRECTION ( 'NONE',  ( -6.123233995736769734E-17, 0.000000000000000000, 1.000000000000000000 ) ) ;
#903 = EDGE_LOOP ( 'NONE', ( #267, #855, #1035, #165 ) ) ;
#904 = B_SPLINE_CURVE_WITH_KNOTS ( 'NONE', 3,
 ( #950, #229, #871, #288, #927, #206, #521, #372, #688, #321, #891, #485, #156, #69, #475, #402, #563, #478, #1052, #636, #557, #723, #253, #171, #494, #244, #1040, #815, #324, #85, #962, #397, #643, #1046, #408, #960, #240, #416 ),
 .UNSPECIFIED., .F., .F.,
 ( 4, 1, 1, 1, 2, 2, 2, 1, 1, 1, 2, 2, 2, 1, 1, 1, 2, 2, 2, 1, 1, 1, 2, 2, 4 ),
 ( 0.000000000000000000, 0.06249999999999997224, 0.09374999999999995837, 0.1093749999999999306, 0.1171874999999999306, 0.1249999999999999445, 0.2499999999999998057, 0.3124999999999997224, 0.3437499999999996114, 0.3593749999999995559, 0.3671874999999995559, 0.3749999999999995559, 0.4999999999999997780, 0.5624999999999998890, 0.5937499999999998890, 0.6093749999999998890, 0.6171874999999998890, 0.6249999999999997780, 0.7500000000000002220, 0.8125000000000004441, 0.8437500000000004441, 0.8593750000000004441, 0.8671875000000004441, 0.8750000000000003331, 1.000000000000000000 ),
 .UNSPECIFIED. ) ;
#905 = CARTESIAN_POINT ( 'NONE',  ( 2.141999999999999904, 2.703569551359435774, 0.3581563766298858087 ) ) ;
#906 = CARTESIAN_POINT ( 'NONE',  ( 1.530000000000000027, 2.370412857557044450, -1.338484535959170607 ) ) ;
#907 = DIRECTION ( 'NONE',  ( 0.000000000000000000, 0.000000000000000000, -1.000000000000000000 ) ) ;
#908 = EDGE_LOOP ( 'NONE', ( #718, #668 ) ) ;
#909 = EDGE_CURVE ( 'NONE', #1042, #500, #286, .T. ) ;
#910 = CARTESIAN_POINT ( 'NONE',  ( 1.613400000000000389, 3.404518101629640787E-16, -2.779999999999999361 ) ) ;
#911 = CARTESIAN_POINT ( 'NONE',  ( 2.402099999999999458, -2.634833084753755106, 0.7037179297450047999 ) ) ;
#912 = CARTESIAN_POINT ( 'NONE',  ( 2.141999999999999904, -2.703430448640565142, 0.3581563766297976570 ) ) ;
#913 = ORIENTED_EDGE ( 'NONE', *, *, #971, .F. ) ;
#914 = FACE_BOUND ( 'NONE', #823, .T. ) ;
#915 = CARTESIAN_POINT ( 'NONE',  ( 2.402099999999999902, -2.703430448640565142, 0.3581563766297979345 ) ) ;
#916 = FACE_OUTER_BOUND ( 'NONE', #832, .T. ) ;
#917 = ORIENTED_EDGE ( 'NONE', *, *, #829, .F. ) ;
#918 = AXIS2_PLACEMENT_3D ( 'NONE', #708, #859, #932 ) ;
#919 = CIRCLE ( 'NONE', #1003, 0.8000000000000000444 ) ;
#920 = ADVANCED_FACE ( 'NONE', ( #370 ), #82, .T. ) ;
#921 = CARTESIAN_POINT ( 'NONE',  ( 2.325600000000000112, -2.633135131372790649, -0.7076354053653154397 ) ) ;
#922 = DIRECTION ( 'NONE',  ( 0.000000000000000000, 0.000000000000000000, 1.000000000000000000 ) ) ;
#923 = CARTESIAN_POINT ( 'NONE',  ( -5.684341886080801487E-11, 1.224646799118394123E-16, -0.9999999999763531378 ) ) ;
#924 = ORIENTED_EDGE ( 'NONE', *, *, #235, .F. ) ;
#925 = DIRECTION ( 'NONE',  ( -1.000000000000000000, 0.000000000000000000, -1.836970198721029934E-16 ) ) ;
#926 = LINE ( 'NONE', #136, #955 ) ;
#927 = CARTESIAN_POINT ( 'NONE',  ( 1.529999999999999805, -0.8523894024662905800, -2.559037838562345790 ) ) ;
#928 = EDGE_LOOP ( 'NONE', ( #1049, #556, #671, #319 ) ) ;
#929 = B_SPLINE_CURVE_WITH_KNOTS ( 'NONE', 3,
 ( #858, #210, #218, #108, #686, #198, #115, #751, #459, #435, #921, #441, #1007, #771, #29, #527, #838, #680 ),
 .UNSPECIFIED., .F., .F.,
 ( 4, 2, 2, 2, 2, 2, 2, 2, 4 ),
 ( 0.000000000000000000, 0.06250000000000000000, 0.1250000000000000000, 0.1875000000000000000, 0.2500000000000000000, 0.3125000000000000000, 0.3750000000000000000, 0.4375000000000000000, 0.5000000000000000000 ),
 .UNSPECIFIED. ) ;
#930 = CARTESIAN_POINT ( 'NONE',  ( 2.325600000000000556, 2.633135131372791538, -0.7076354053653136633 ) ) ;
#931 = FACE_OUTER_BOUND ( 'NONE', #50, .T. ) ;
#932 = DIRECTION ( 'NONE',  ( 0.000000000000000000, 0.000000000000000000, 1.000000000000000000 ) ) ;
#933 = CARTESIAN_POINT ( 'NONE',  ( 6.530000000068866051, 3.353450330040851488E-16, -2.696599999922000279 ) ) ;
#934 = DIRECTION ( 'NONE',  ( 1.000000000000000000, 0.000000000000000000, 1.836970198661850822E-16 ) ) ;
#935 = CIRCLE ( 'NONE', #918, 2.779999999999999805 ) ;
#936 = ORIENTED_EDGE ( 'NONE', *, *, #11, .F. ) ;
#937 = AXIS2_PLACEMENT_3D ( 'NONE', #554, #879, #1033 ) ;
#938 = VECTOR ( 'NONE', #113, 1000.000000000000000 ) ;
#939 = CARTESIAN_POINT ( 'NONE',  ( 2.325600000000000112, 2.362281500915735410, 1.361533913432727338 ) ) ;
#940 = CARTESIAN_POINT ( 'NONE',  ( 0.1999999998669982626, 0.000000000000000000, 3.673940395924699722E-17 ) ) ;
#941 = DIRECTION ( 'NONE',  ( -1.000000000000000000, 0.000000000000000000, -6.123233995736769734E-17 ) ) ;
#942 = CARTESIAN_POINT ( 'NONE',  ( 6.530000000068866051, 0.000000000000000000, 2.696599999922001167 ) ) ;
#943 = CYLINDRICAL_SURFACE ( 'NONE', #659, 2.779999999999999805 ) ;
#944 = EDGE_CURVE ( 'NONE', #970, #323, #197, .T. ) ;
#945 = ORIENTED_EDGE ( 'NONE', *, *, #76, .F. ) ;
#946 = FACE_OUTER_BOUND ( 'NONE', #632, .T. ) ;
#947 = CARTESIAN_POINT ( 'NONE',  ( 0.1799999999434475084, 2.204364238432211640E-16, -1.799999999946066964 ) ) ;
#948 = ORIENTED_EDGE ( 'NONE', *, *, #452, .T. ) ;
#949 = CARTESIAN_POINT ( 'NONE',  ( 2.402099999999999902, 2.360712061689369978, 1.365504621358823334 ) ) ;
#950 = CARTESIAN_POINT ( 'NONE',  ( 1.530000000000000471, 2.356171455687541602E-16, -2.696600000000000108 ) ) ;
#951 = DIRECTION ( 'NONE',  ( -1.000000000000000000, -0.000000000000000000, -6.123233995736769734E-17 ) ) ;
#952 = VERTEX_POINT ( 'NONE', #673 ) ;
#953 = CONICAL_SURFACE ( 'NONE', #868, 2.780000000029758667, 0.7853981633974457255 ) ;
#954 = AXIS2_PLACEMENT_3D ( 'NONE', #44, #49, #376 ) ;
#955 = VECTOR ( 'NONE', #58, 1000.000000000000000 ) ;
#956 = EDGE_CURVE ( 'NONE', #541, #604, #331, .T. ) ;
#957 = CARTESIAN_POINT ( 'NONE',  ( 6.529999999955179213, 1.224646799118394863E-16, 0.9999999999763544700 ) ) ;
#958 = CARTESIAN_POINT ( 'NONE',  ( 2.325600000000000112, 0.000000000000000000, 2.779999999999999805 ) ) ;
#959 = DIRECTION ( 'NONE',  ( -1.000000000000000000, 0.000000000000000000, -6.123233995736769734E-17 ) ) ;
#960 = CARTESIAN_POINT ( 'NONE',  ( 1.530000000000000027, -0.6739524311304435633, 2.633489044214983643 ) ) ;
#961 = CARTESIAN_POINT ( 'NONE',  ( 2.065500000000000114, 0.7076354053653141074, 2.633135131372791093 ) ) ;
#962 = CARTESIAN_POINT ( 'NONE',  ( 1.530000000000000027, -1.286642144892593542, 2.373414277047746879 ) ) ;
#963 = CARTESIAN_POINT ( 'NONE',  ( 1.529999999999999805, 0.9526818040424757106, 2.522798344420168259 ) ) ;
#964 = ORIENTED_EDGE ( 'NONE', *, *, #107, .F. ) ;
#965 = EDGE_CURVE ( 'NONE', #66, #531, #678, .T. ) ;
#966 = ADVANCED_BREP_SHAPE_REPRESENTATION ( 'SMTSO-M2-5ET', ( #243, #262 ), #648 ) ;
#967 = CIRCLE ( 'NONE', #365, 1.620000000059462764 ) ;
#968 = DIRECTION ( 'NONE',  ( -1.000000000000000000, 0.000000000000000000, -1.836970198721029934E-16 ) ) ;
#969 = CARTESIAN_POINT ( 'NONE',  ( 2.065500000000000114, 1.661427057452182332, -2.161899308423479660 ) ) ;
#970 = VERTEX_POINT ( 'NONE', #843 ) ;
#971 = EDGE_CURVE ( 'NONE', #196, #531, #612, .T. ) ;
#972 = DIRECTION ( 'NONE',  ( 0.000000000000000000, 0.000000000000000000, -1.000000000000000000 ) ) ;
#973 = FACE_OUTER_BOUND ( 'NONE', #18, .T. ) ;
#974 = CYLINDRICAL_SURFACE ( 'NONE', #260, 1.800000000000000266 ) ;
#975 = EDGE_LOOP ( 'NONE', ( #61, #350 ) ) ;
#976 = DIRECTION ( 'NONE',  ( -1.000000000000000000, 0.000000000000000000, -6.123233995736769734E-17 ) ) ;
#977 = FACE_BOUND ( 'NONE', #255, .T. ) ;
#978 = CARTESIAN_POINT ( 'NONE',  ( 2.065500000000000558, 2.161899308423480548, -1.661427057452182332 ) ) ;
#979 = ORIENTED_EDGE ( 'NONE', *, *, #889, .F. ) ;
#980 = CIRCLE ( 'NONE', #343, 2.779999999999999361 ) ;
#981 = EDGE_CURVE ( 'NONE', #294, #404, #64, .T. ) ;
#982 = CARTESIAN_POINT ( 'NONE',  ( -5.684360255782787641E-11, 0.000000000000000000, 2.318582358048655205E-42 ) ) ;
#983 = CARTESIAN_POINT ( 'NONE',  ( 2.402099999999999458, -0.3581563766297491402, -2.703430448640564698 ) ) ;
#984 = AXIS2_PLACEMENT_3D ( 'NONE', #9, #32, #588 ) ;
#985 = CARTESIAN_POINT ( 'NONE',  ( 2.065500000000000114, -0.3538873224574998200, -2.703500000000000014 ) ) ;
#986 = ORIENTED_EDGE ( 'NONE', *, *, #199, .T. ) ;
#987 = APPLICATION_CONTEXT ( 'automotive_design' ) ;
#988 = FACE_OUTER_BOUND ( 'NONE', #427, .T. ) ;
#989 = CARTESIAN_POINT ( 'NONE',  ( 1.530000000000000693, 1.775298635351236110, -2.038322179489108432 ) ) ;
#990 = CARTESIAN_POINT ( 'NONE',  ( 2.065500000000000114, 3.310832621494869645E-16, -2.703500000000000014 ) ) ;
#991 = ORIENTED_EDGE ( 'NONE', *, *, #89, .T. ) ;
#992 = CARTESIAN_POINT ( 'NONE',  ( 1.530000000000000249, 1.286642144892716999, -2.373414277047622534 ) ) ;
#993 = DIRECTION ( 'NONE',  ( 1.000000000000000000, 0.000000000000000000, 0.000000000000000000 ) ) ;
#994 = CARTESIAN_POINT ( 'NONE',  ( 2.141999999999999904, -1.365451389052220854, -2.360583547534774063 ) ) ;
#995 = ORIENTED_EDGE ( 'NONE', *, *, #301, .F. ) ;
#996 = ADVANCED_FACE ( 'NONE', ( #134, #914 ), #593, .T. ) ;
#997 = CARTESIAN_POINT ( 'NONE',  ( 2.325600000000000556, 1.361533913432726450, 2.362281500915737187 ) ) ;
#998 = CYLINDRICAL_SURFACE ( 'NONE', #1000, 2.779999999999999805 ) ;
#999 = CARTESIAN_POINT ( 'NONE',  ( 2.065500000000000114, -0.7076354053653159948, 2.633135131372790649 ) ) ;
#1000 = AXIS2_PLACEMENT_3D ( 'NONE', #657, #269, #922 ) ;
#1001 = VERTEX_POINT ( 'NONE', #793 ) ;
#1002 = CIRCLE ( 'NONE', #547, 0.8000000000000000444 ) ;
#1003 = AXIS2_PLACEMENT_3D ( 'NONE', #155, #469, #239 ) ;
#1004 = B_SPLINE_CURVE_WITH_KNOTS ( 'NONE', 3,
 ( #203, #857, #257, #369, #733, #851, #738, #41, #360, #905, #571, #177, #820, #519, #120, #182, #825, #90 ),
 .UNSPECIFIED., .F., .F.,
 ( 4, 2, 2, 2, 2, 2, 2, 2, 4 ),
 ( 0.5000000000000000000, 0.5625000000000000000, 0.6250000000000000000, 0.6875000000000000000, 0.7500000000000000000, 0.8125000000000001110, 0.8750000000000000000, 0.9375000000000000000, 1.000000000000000000 ),
 .UNSPECIFIED. ) ;
#1005 = DIRECTION ( 'NONE',  ( -1.000000000000000000, 0.000000000000000000, -6.123233995736769734E-17 ) ) ;
#1006 = CARTESIAN_POINT ( 'NONE',  ( 1.530000000000000249, -6.604765117161505040E-16, 2.696600000000000108 ) ) ;
#1007 = CARTESIAN_POINT ( 'NONE',  ( 2.325600000000000112, -2.161899308423479660, -1.661427057452182776 ) ) ;
#1008 = CARTESIAN_POINT ( 'NONE',  ( 2.402100000000000346, -1.658457560535939734, -2.164967165815498529 ) ) ;
#1009 = FACE_OUTER_BOUND ( 'NONE', #867, .T. ) ;
#1010 = ORIENTED_EDGE ( 'NONE', *, *, #127, .T. ) ;
#1011 = CARTESIAN_POINT ( 'NONE',  ( 6.446600000017951970, 0.000000000000000000, 2.779999999972915248 ) ) ;
#1012 = CARTESIAN_POINT ( 'NONE',  ( 1.530000000000000027, 0.000000000000000000, 9.368548013477262105E-17 ) ) ;
#1013 = CARTESIAN_POINT ( 'NONE',  ( 2.065500000000000114, 0.000000000000000000, 2.779999999999999805 ) ) ;
#1014 = FACE_BOUND ( 'NONE', #407, .T. ) ;
#1015 = CYLINDRICAL_SURFACE ( 'NONE', #413, 0.8000000000000000444 ) ;
#1016 = CARTESIAN_POINT ( 'NONE',  ( 2.363849999999999785, 3.310832621494869645E-16, -2.703500000000000014 ) ) ;
#1017 = CARTESIAN_POINT ( 'NONE',  ( 1.613400000000000167, 0.000000000000000000, 9.879225728721689882E-17 ) ) ;
#1018 = EDGE_CURVE ( 'NONE', #513, #277, #919, .T. ) ;
#1019 = DIRECTION ( 'NONE',  ( 1.000000000000000000, 0.000000000000000000, 6.123233995736769734E-17 ) ) ;
#1020 = ORIENTED_EDGE ( 'NONE', *, *, #410, .T. ) ;
#1021 = ORIENTED_EDGE ( 'NONE', *, *, #72, .T. ) ;
#1022 = DIRECTION ( 'NONE',  ( 1.000000000000000000, -0.000000000000000000, 6.123233995736769734E-17 ) ) ;
#1023 = FACE_OUTER_BOUND ( 'NONE', #755, .T. ) ;
#1024 = ORIENTED_EDGE ( 'NONE', *, *, #76, .T. ) ;
#1025 =( LENGTH_UNIT ( ) NAMED_UNIT ( * ) SI_UNIT ( .MILLI., .METRE. ) );
#1026 = DIRECTION ( 'NONE',  ( -6.123233995736769734E-17, 0.000000000000000000, 1.000000000000000000 ) ) ;
#1027 = CARTESIAN_POINT ( 'NONE',  ( 1.613400000000000389, 5.559999999999997833, -2.779999999999998472 ) ) ;
#1028 = EDGE_LOOP ( 'NONE', ( #152, #642, #357, #565 ) ) ;
#1029 = EDGE_LOOP ( 'NONE', ( #238, #21, #847, #995 ) ) ;
#1030 = EDGE_CURVE ( 'NONE', #533, #196, #449, .T. ) ;
#1031 = CARTESIAN_POINT ( 'NONE',  ( 5.684323996744955476E-11, 2.094146026545359970E-16, 1.620000000059462764 ) ) ;
#1032 = CARTESIAN_POINT ( 'NONE',  ( 2.103749999999999787, 0.000000000000000000, 1.288175351853119965E-16 ) ) ;
#1033 = DIRECTION ( 'NONE',  ( 0.000000000000000000, 0.000000000000000000, 1.000000000000000000 ) ) ;
#1034 = ORIENTED_EDGE ( 'NONE', *, *, #419, .F. ) ;
#1035 = ORIENTED_EDGE ( 'NONE', *, *, #965, .T. ) ;
#1036 = AXIS2_PLACEMENT_3D ( 'NONE', #1017, #698, #297 ) ;
#1037 = VECTOR ( 'NONE', #151, 1000.000000000000000 ) ;
#1038 = PRODUCT_RELATED_PRODUCT_CATEGORY ( 'part', '', ( #703 ) ) ;
#1039 = CARTESIAN_POINT ( 'NONE',  ( 4.765000000000000568, 0.000000000000000000, 0.8000000000000003775 ) ) ;
#1040 = CARTESIAN_POINT ( 'NONE',  ( 1.529999999999999583, -2.370412857557635977, 1.338484535958576860 ) ) ;
#1041 = CARTESIAN_POINT ( 'NONE',  ( 1.529999999999999583, 2.633421532096196227, 0.6741228679065885965 ) ) ;
#1042 = VERTEX_POINT ( 'NONE', #1031 ) ;
#1043 = FACE_BOUND ( 'NONE', #561, .T. ) ;
#1044 = CARTESIAN_POINT ( 'NONE',  ( 1.530000000000000249, 2.204364238465236069E-16, -1.800000000000000266 ) ) ;
#1045 = ORIENTED_EDGE ( 'NONE', *, *, #227, .F. ) ;
#1046 = CARTESIAN_POINT ( 'NONE',  ( 1.529999999999999805, -1.035751370874163468, 2.489865630108751837 ) ) ;
#1047 = CARTESIAN_POINT ( 'NONE',  ( 2.065500000000000114, 0.7076354053653144405, -2.633135131372791538 ) ) ;
#1048 = EDGE_CURVE ( 'NONE', #411, #246, #140, .T. ) ;
#1049 = ORIENTED_EDGE ( 'NONE', *, *, #222, .F. ) ;
#1050 = MECHANICAL_DESIGN_GEOMETRIC_PRESENTATION_REPRESENTATION (  '', ( #174 ), #330 ) ;
#1051 = CARTESIAN_POINT ( 'NONE',  ( 5.924350000000000449, 0.000000000000000000, 2.779999999999999805 ) ) ;
#1052 = CARTESIAN_POINT ( 'NONE',  ( 1.530000000000000027, -2.696532625059433474, -0.3425573413952965884 ) ) ;
#1053 = CARTESIAN_POINT ( 'NONE',  ( 2.065499999999999670, 1.361533913432726672, -2.362281500915736299 ) ) ;
#1054 = APPLICATION_PROTOCOL_DEFINITION ( 'draft international standard', 'automotive_design', 1998, #987 ) ;
#1055 = ORIENTED_EDGE ( 'NONE', *, *, #205, .F. ) ;
ENDSEC;
END-ISO-10303-21;
